<svg xmlns="http://www.w3.org/2000/svg" xmlns:xlink="http://www.w3.org/1999/xlink" width="110" height="110" viewBox="0 0 110 110">
    <defs>
        <linearGradient id="a" x1="50%" x2="50%" y1="1.881%" y2="100%">
            <stop offset="0%" stop-color="#FCB563"/>
            <stop offset="100%" stop-color="#FF8842"/>
        </linearGradient>
        <path id="b" d="M.013.666h55.012V80H.013z"/>
        <path id="d" d="M.52.666h27.505V80H.52z"/>
        <path id="f" d="M.691.167h13.312v13.312H.691z"/>
    </defs>
    <g fill="none" fill-rule="evenodd" transform="translate(0 -1)">
        <circle cx="55" cy="56" r="55" fill="url(#a)" fill-rule="nonzero"/>
        <g transform="translate(46 17.833)">
            <mask id="c" fill="#fff">
                <use xlink:href="#b"/>
            </mask>
            <path fill="#1A2B63" d="M55.025 3.783v73.1A3.118 3.118 0 0 1 51.908 80H3.13a3.119 3.119 0 0 1-3.117-3.117v-73.1A3.119 3.119 0 0 1 3.13.666h48.778a3.118 3.118 0 0 1 3.117 3.117" mask="url(#c)"/>
        </g>
        <g transform="translate(73 17.833)">
            <mask id="e" fill="#fff">
                <use xlink:href="#d"/>
            </mask>
            <path fill="#293D7C" d="M28.025 3.783v73.1A3.118 3.118 0 0 1 24.908 80H.52V.666h24.388a3.118 3.118 0 0 1 3.117 3.117" mask="url(#e)"/>
        </g>
        <path fill="#D9EAFC" d="M93.238 32.452a2.098 2.098 0 0 1-2.118 2.118H69.937a2.098 2.098 0 0 1-2.12-2.118c0-1.187.934-2.118 2.12-2.118H91.12c1.185 0 2.118.93 2.118 2.118M95.44 40.925a2.125 2.125 0 0 1-2.117 2.118H57.086a2.098 2.098 0 0 1-2.12-2.118c0-1.187.934-2.12 2.12-2.12h36.237c1.143 0 2.118.933 2.118 2.12M94.967 49.522a2.125 2.125 0 0 1-2.118 2.12H65.085a2.098 2.098 0 0 1-2.118-2.12c0-1.186.933-2.118 2.118-2.118H92.85c1.143 0 2.118.932 2.118 2.118M95.068 57.87a2.098 2.098 0 0 1-2.118 2.119H71.71a2.098 2.098 0 0 1-2.118-2.118c0-1.186.933-2.118 2.119-2.118H92.95c1.186 0 2.118.932 2.118 2.118"/>
        <path fill="#F7D1B7" d="M81.415 59.09a3.892 3.892 0 0 1-3.896 3.893h-3.803a3.78 3.78 0 0 1 3.779 3.78v.231a3.78 3.78 0 0 1-3.78 3.78h-4.389a3.78 3.78 0 0 1 3.776 3.78v.23a3.781 3.781 0 0 1-3.782 3.78H52.143c-5.666-.105-11.049-.385-13.237-.772-1.944-.343-4.755-1.56-6.819-2.548a13.884 13.884 0 0 0-5.983-1.355H13.76V52.382h11.838a3.742 3.742 0 0 0 3.741-3.744c0-6.189 5.017-11.206 11.206-11.206h5.47v9.981h28.362a3.886 3.886 0 0 1 3.894 3.884 3.894 3.894 0 0 1-3.894 3.895h3.143a3.895 3.895 0 0 1 3.895 3.897"/>
        <path fill="#E8C5AF" d="M78.27 51.298a3.895 3.895 0 0 1-3.895 3.895H54.088a1.947 1.947 0 0 1 0-3.895H78.27zM81.415 59.089a3.893 3.893 0 0 1-3.897 3.895h-23.43a1.947 1.947 0 0 1 0-3.895h27.327zM77.495 66.88v.114a3.78 3.78 0 0 1-3.78 3.78h-4.388.049H54.09a1.949 1.949 0 0 1-1.378-3.324c.353-.352.84-.57 1.378-.57h23.405zM73.102 74.669v.115a3.781 3.781 0 0 1-3.781 3.78H52.142v-.567a3.327 3.327 0 0 1 3.327-3.328h17.633zM46.014 42.864v4.55h-3.853a2.275 2.275 0 0 1 0-4.55h3.853z"/>
        <path fill="#FFF" d="M108.274 83.41v4.207c0 5.616-4.56 10.174-10.175 10.174H55.232c4.477 0 8.139-3.663 8.139-8.14v-6.24c0-1.14.895-2.035 2.035-2.035h40.833c1.139 0 2.035.895 2.035 2.035"/>
        <path fill="#D9EAFC" d="M108.274 83.41v4.207c0 5.616-4.56 10.174-10.175 10.174H73.68V81.376h32.558c1.139 0 2.035.895 2.035 2.035"/>
        <path fill="#293D7C" d="M1.774 66.615c.314 1.91.71 3.67 1.139 5.265 4.36.012 16.418.025 20.778.037V59.63L1.086 59.61c.069 2.097.268 4.452.688 7.005"/>
        <path fill="#1A2B63" d="M1.43 49.052a63.02 63.02 0 0 0-.289 11.573l22.55.021V49.078a2266.824 2266.824 0 0 0-22.26-.026"/>
        <path fill="#D9EAFC" d="M14.044 77.476c-.63 0-1.146-.437-1.146-.972V46.622c0-.536.516-.973 1.146-.973h11.877c.63 0 1.145.437 1.145.973v29.88c0 .537-.515.974-1.145.974H14.044z"/>
        <path fill="#FFF" d="M15.895 76.503V46.621c0-.535.437-.973.973-.973h-3.86a.975.975 0 0 0-.972.973v29.882c0 .535.437.972.972.972h3.86a.975.975 0 0 1-.973-.972"/>
        <path fill="#1A2B63" d="M21.051 47.808a2.605 2.605 0 1 1-2.604 2.604 2.605 2.605 0 0 1 2.604-2.604"/>
        <path fill="#FFD00D" d="M26.774 35.813a.686.686 0 0 1-.634-.425c-1.351-3.261-2.347-4.256-5.61-5.607a.687.687 0 0 1 0-1.268c3.263-1.353 4.259-2.349 5.61-5.61a.688.688 0 0 1 1.268 0c1.35 3.262 2.347 4.258 5.609 5.61a.686.686 0 0 1 0 1.267c-3.262 1.35-4.258 2.346-5.61 5.608a.687.687 0 0 1-.633.425"/>
        <path fill="#FFAF10" d="M27.511 34.017c-1.35-3.262-2.347-4.258-5.608-5.609a.679.679 0 0 1-.359-.342 24.31 24.31 0 0 1-1.013.446.686.686 0 0 0 0 1.268c3.261 1.351 4.257 2.347 5.61 5.61a.685.685 0 0 0 1.266 0c.152-.368.3-.702.446-1.015a.684.684 0 0 1-.342-.358"/>
        <path fill="#FFD00D" d="M92.065 23.979a.52.52 0 0 1-.48-.32c-1.021-2.467-1.774-3.22-4.241-4.242a.519.519 0 0 1 0-.959c2.467-1.022 3.22-1.775 4.242-4.242a.52.52 0 0 1 .958 0c1.023 2.467 1.776 3.22 4.243 4.242a.52.52 0 0 1 0 .959c-2.467 1.021-3.22 1.775-4.243 4.242a.517.517 0 0 1-.48.32"/>
        <path fill="#FFAF10" d="M92.624 22.621c-1.021-2.467-1.775-3.22-4.242-4.24a.523.523 0 0 1-.272-.26c-.236.111-.489.222-.766.337a.517.517 0 0 0 0 .96c2.467 1.021 3.22 1.774 4.242 4.241a.521.521 0 0 0 .959 0c.114-.278.225-.53.337-.767a.522.522 0 0 1-.258-.27"/>
        <path fill="#FFD00D" d="M30.513 97.334a.635.635 0 0 1-.587-.394c-1.252-3.022-2.175-3.944-5.197-5.195a.637.637 0 0 1 0-1.177c3.022-1.251 3.945-2.174 5.197-5.197a.635.635 0 0 1 1.175 0c1.252 3.023 2.175 3.946 5.197 5.198a.639.639 0 0 1 .393.587.639.639 0 0 1-.393.588c-3.022 1.252-3.945 2.174-5.197 5.197a.637.637 0 0 1-.588.392"/>
        <path fill="#FFAF10" d="M31.197 95.67c-1.252-3.023-2.175-3.946-5.197-5.198a.626.626 0 0 1-.331-.317c-.29.137-.6.273-.94.413a.636.636 0 0 0 0 1.176c3.023 1.251 3.946 2.174 5.197 5.196a.636.636 0 0 0 1.175 0c.14-.339.277-.649.412-.939a.64.64 0 0 1-.316-.332"/>
        <g transform="translate(49 .833)">
            <mask id="g" fill="#fff">
                <use xlink:href="#f"/>
            </mask>
            <path fill="#FFD00D" d="M7.346 13.48a.687.687 0 0 1-.633-.424C5.365 9.8 4.37 8.806 1.114 7.456a.684.684 0 0 1 0-1.266c3.256-1.35 4.251-2.344 5.6-5.6a.687.687 0 0 1 1.266 0c1.348 3.256 2.344 4.25 5.6 5.6a.685.685 0 0 1 0 1.266c-3.256 1.35-4.252 2.343-5.6 5.6a.688.688 0 0 1-.634.423" mask="url(#g)"/>
        </g>
        <path fill="#FFAF10" d="M57.083 12.52c-1.35-3.256-2.344-4.252-5.6-5.6a.68.68 0 0 1-.358-.341c-.313.146-.646.293-1.012.445a.684.684 0 0 0 0 1.266c3.257 1.349 4.251 2.343 5.6 5.6a.685.685 0 0 0 1.266 0c.152-.367.298-.7.445-1.013a.679.679 0 0 1-.34-.357"/>
    </g>
</svg>
