<svg xmlns="http://www.w3.org/2000/svg" xmlns:xlink="http://www.w3.org/1999/xlink" width="110" height="110" viewBox="0 0 110 110">
    <defs>
        <linearGradient id="a" x1="50%" x2="50%" y1="1.881%" y2="100%">
            <stop offset="0%" stop-color="#FCB563"/>
            <stop offset="100%" stop-color="#FF8842"/>
        </linearGradient>
        <path id="b" d="M1 .5h.5V1H1z"/>
        <path id="d" d="M1 .5h.5V1H1z"/>
        <path id="f" d="M0 .156h27.38v11.47H0z"/>
    </defs>
    <g fill="none" fill-rule="evenodd">
        <circle cx="55" cy="55" r="55" fill="url(#a)" fill-rule="nonzero"/>
        <path fill="#D9EAFC" d="M33.971 11.704a2.54 2.54 0 0 0-2.537 2.539c0 6.065-4.936 11-11 11a2.538 2.538 0 0 0-2.54 2.538V70.19a17.72 17.72 0 0 0 9.51 15.733L53.1 99.413c.37.194.775.29 1.18.29l1.693-44.168-1.693-43.831H33.971z"/>
        <path fill="#FFF" d="M88.126 25.242c-6.066 0-11-4.935-11-11a2.54 2.54 0 0 0-2.54-2.539H54.28v88a2.54 2.54 0 0 0 1.18-.29l25.696-13.49a17.722 17.722 0 0 0 9.509-15.733V27.781a2.54 2.54 0 0 0-2.538-2.539"/>
        <path fill="#1A2B63" d="M40.585 18.45a2.79 2.79 0 0 0-2.521 1.593A23.462 23.462 0 0 1 27 31.104a2.795 2.795 0 0 0-1.593 2.523v38.02a8.358 8.358 0 0 0 4.486 7.422L52.98 91.19c.407.213.853.321 1.299.321l1.864-36.53-1.865-36.53H40.585z"/>
        <path fill="#293D7C" d="M81.558 31.105a23.462 23.462 0 0 1-11.063-11.063 2.793 2.793 0 0 0-2.523-1.592H54.28v73.06a2.8 2.8 0 0 0 1.298-.32l23.087-12.12a8.36 8.36 0 0 0 4.486-7.422v-38.02c0-1.079-.62-2.06-1.593-2.524"/>
        <g transform="translate(-1 98.704)">
            <mask id="c" fill="#fff">
                <use xlink:href="#b"/>
            </mask>
        </g>
        <g transform="translate(-1 98.704)">
            <mask id="e" fill="#fff">
                <use xlink:href="#d"/>
            </mask>
        </g>
        <path fill="#293D7C" d="M.088 57.641a74.075 74.075 0 0 0 1.335 10.75c5.448.012 20.51.025 25.957.037V56.33H.079c.005.106.003 1.205.009 1.312"/>
        <g transform="translate(0 45.704)">
            <mask id="g" fill="#fff">
                <use xlink:href="#f"/>
            </mask>
            <path fill="#1A2B63" d="M.437.156a73.916 73.916 0 0 0-.358 11.47h27.3V.232C21.603.207 6.212.181.437.156" mask="url(#g)"/>
        </g>
        <path fill="#F7D1B7" d="M55.906 69.743v-2.685a2.726 2.726 0 0 1 2.723-2.722h.63a.194.194 0 0 0 0-.39 2.726 2.726 0 0 1-2.723-2.722v-2.685a2.725 2.725 0 0 1 2.723-2.722.194.194 0 0 0 0-.39 2.726 2.726 0 0 1-2.723-2.722V50.02a2.725 2.725 0 0 1 2.723-2.723.194.194 0 0 0 0-.39h-1.203a2.725 2.725 0 0 1-2.722-2.722V41.5c0-1.334.965-2.445 2.232-2.677V28.373a2.926 2.926 0 0 0-2.917-2.918h-4.538c-1.604 0-3.094 1.302-3.31 2.89l-1.829 13.413c-.215 1.583-1.359 2.88-2.545 2.889V69.93h13.49c-.005-.062-.01-.124-.01-.187"/>
        <path fill="#E8C5AF" d="M54.65 25.455h-4.538c-1.605 0-3.095 1.301-3.312 2.891l-1.828 13.411c-.216 1.584-1.359 2.88-2.546 2.89v3.86h3.846c1.19 0 2.343-1.3 2.56-2.89l1.827-13.412c.217-1.59 1.707-2.89 3.311-2.89h3.596v-.943a2.926 2.926 0 0 0-2.917-2.917"/>
        <path fill="#F7D1B7" d="M58.629 72.66a2.926 2.926 0 0 1-2.917-2.917v-2.685a2.925 2.925 0 0 1 2.917-2.917h15.82a2.926 2.926 0 0 1 2.919 2.917v2.685a2.926 2.926 0 0 1-2.918 2.917H58.629z"/>
        <path fill="#D9EAFC" d="M29.599 73.096c-.63 0-1.146-.438-1.146-.973V42.241c0-.535.515-.972 1.146-.972h11.876c.63 0 1.145.437 1.145.972v29.882c0 .535-.514.973-1.145.973H29.598z"/>
        <path fill="#FFF" d="M31.45 72.124V42.242c0-.535.436-.972.972-.972h-3.86a.974.974 0 0 0-.972.971v29.883c0 .535.437.972.972.972h3.86a.974.974 0 0 1-.973-.972"/>
        <path fill="#B7092B" d="M36.605 43.428a2.604 2.604 0 1 1 0 5.206 2.604 2.604 0 0 1 0-5.206"/>
        <path fill="#F7D1B7" d="M58.056 47.102a2.925 2.925 0 0 1-2.916-2.916V41.5a2.926 2.926 0 0 1 2.916-2.918h16.395a2.927 2.927 0 0 1 2.918 2.918v2.684a2.926 2.926 0 0 1-2.918 2.917H58.057zM59.259 55.622a2.927 2.927 0 0 1-2.918-2.917V50.02a2.927 2.927 0 0 1 2.918-2.918H75.16a2.926 2.926 0 0 1 2.917 2.918v2.685a2.925 2.925 0 0 1-2.917 2.917H59.259zM59.259 64.141a2.927 2.927 0 0 1-2.918-2.917V58.54a2.927 2.927 0 0 1 2.918-2.917H75.16a2.925 2.925 0 0 1 2.917 2.917v2.685a2.925 2.925 0 0 1-2.917 2.917H59.259z"/>
        <path fill="#E8C5AF" d="M61.632 69.657a2.925 2.925 0 0 1-2.917-2.917v-2.6h-.086a2.926 2.926 0 0 0-2.917 2.919v2.684a2.926 2.926 0 0 0 2.917 2.917h15.82a2.926 2.926 0 0 0 2.919-2.917v-.086H61.632zM61.06 44.1a2.927 2.927 0 0 1-2.918-2.917v-2.6h-.086a2.925 2.925 0 0 0-2.917 2.918v2.685a2.926 2.926 0 0 0 2.917 2.917H74.45a2.927 2.927 0 0 0 2.918-2.917V44.1H61.06z"/>
        <path fill="#E8C5AF" d="M62.262 52.619a2.925 2.925 0 0 1-2.917-2.917v-2.6h-.086a2.926 2.926 0 0 0-2.917 2.918v2.685a2.926 2.926 0 0 0 2.917 2.917H75.16a2.925 2.925 0 0 0 2.917-2.917v-.086H62.262z"/>
        <path fill="#E8C5AF" d="M62.262 61.138a2.925 2.925 0 0 1-2.917-2.917v-2.6h-.086a2.926 2.926 0 0 0-2.917 2.919v2.684a2.926 2.926 0 0 0 2.917 2.917H75.16a2.925 2.925 0 0 0 2.917-2.917v-.086H62.262z"/>
        <path fill="#FFD00D" d="M71.119 28.51a.63.63 0 0 1-.583-.39c-1.244-3.002-2.16-3.918-5.162-5.161a.632.632 0 0 1 0-1.167c3.002-1.244 3.918-2.161 5.162-5.163a.63.63 0 0 1 1.167 0c1.243 3.002 2.16 3.919 5.162 5.163a.631.631 0 0 1 0 1.167c-3.002 1.243-3.919 2.159-5.162 5.16a.633.633 0 0 1-.584.39"/>
        <path fill="#FFAF10" d="M71.798 26.857c-1.243-3.002-2.16-3.918-5.161-5.162a.624.624 0 0 1-.33-.315c-.288.136-.596.271-.933.411a.631.631 0 0 0 0 1.167c3.002 1.243 3.918 2.16 5.162 5.162a.631.631 0 1 0 1.167 0 23.7 23.7 0 0 1 .409-.933.64.64 0 0 1-.314-.33"/>
        <path fill="#FFD00D" d="M33.119 31.749a.502.502 0 0 1-.464-.31c-.987-2.385-1.716-3.113-4.1-4.101a.5.5 0 0 1 0-.927c2.384-.988 3.113-1.716 4.1-4.101a.502.502 0 0 1 .928 0c.988 2.385 1.716 3.113 4.101 4.101a.502.502 0 0 1 0 .927c-2.385.988-3.113 1.716-4.101 4.101a.502.502 0 0 1-.464.31"/>
        <path fill="#FFAF10" d="M33.659 30.436c-.988-2.384-1.717-3.113-4.102-4.1a.499.499 0 0 1-.261-.25c-.23.107-.474.215-.741.326a.5.5 0 0 0 0 .927c2.384.988 3.113 1.716 4.1 4.1a.503.503 0 0 0 .928 0c.11-.267.219-.512.325-.74a.506.506 0 0 1-.249-.263"/>
        <path fill="#FFD00D" d="M53.286 14.749a.502.502 0 0 1-.464-.31c-.988-2.385-1.716-3.113-4.101-4.101a.5.5 0 0 1 0-.927c2.385-.988 3.113-1.716 4.101-4.101a.502.502 0 0 1 .927 0c.988 2.385 1.717 3.113 4.101 4.101a.5.5 0 1 1 0 .927c-2.384.988-3.113 1.716-4.101 4.101a.5.5 0 0 1-.463.31"/>
        <path fill="#FFAF10" d="M53.825 13.437c-.987-2.385-1.716-3.113-4.101-4.101a.504.504 0 0 1-.262-.25c-.229.106-.473.215-.741.325a.5.5 0 0 0 0 .928c2.385.987 3.113 1.715 4.101 4.1a.503.503 0 0 0 .927 0c.111-.268.219-.511.326-.74a.508.508 0 0 1-.25-.262"/>
        <path fill="#FFD00D" d="M85.953 89.016a.604.604 0 0 1-.559-.374c-1.191-2.874-2.068-3.75-4.943-4.942a.605.605 0 0 1 0-1.118c2.875-1.19 3.752-2.068 4.943-4.942a.604.604 0 0 1 1.118 0c1.19 2.874 2.068 3.751 4.943 4.942a.605.605 0 0 1 0 1.118c-2.875 1.191-3.753 2.068-4.943 4.942a.605.605 0 0 1-.559.374"/>
        <path fill="#FFAF10" d="M86.603 87.434c-1.19-2.875-2.068-3.752-4.943-4.942a.606.606 0 0 1-.316-.302c-.276.129-.57.259-.893.393a.605.605 0 0 0 0 1.118c2.875 1.19 3.752 2.067 4.943 4.942a.605.605 0 0 0 1.117 0c.134-.323.264-.617.393-.893a.604.604 0 0 1-.3-.316"/>
        <path fill="#FFD00D" d="M91.152 58.916a.574.574 0 0 1-.529-.354c-1.13-2.728-1.963-3.561-4.69-4.69a.574.574 0 0 1 0-1.061c2.727-1.13 3.56-1.963 4.69-4.69a.573.573 0 0 1 1.06 0c1.13 2.727 1.962 3.56 4.691 4.69a.573.573 0 0 1 0 1.061c-2.729 1.129-3.562 1.962-4.692 4.69a.574.574 0 0 1-.53.354"/>
        <path fill="#FFAF10" d="M91.77 57.414c-1.13-2.727-1.964-3.56-4.69-4.69a.573.573 0 0 1-.3-.285c-.262.121-.54.245-.848.371a.573.573 0 0 0 0 1.061c2.728 1.13 3.561 1.962 4.691 4.69a.572.572 0 0 0 1.06 0c.126-.306.25-.586.372-.847a.569.569 0 0 1-.286-.3"/>
        <path fill="#FFD00D" d="M27.228 91.385a.575.575 0 0 1-.53-.354c-1.129-2.728-1.962-3.561-4.69-4.69a.573.573 0 0 1 0-1.06c2.728-1.131 3.561-1.964 4.69-4.691a.574.574 0 0 1 1.06 0c1.13 2.727 1.963 3.56 4.691 4.69a.573.573 0 0 1 0 1.06c-2.728 1.13-3.56 1.963-4.69 4.69a.574.574 0 0 1-.53.355"/>
        <path fill="#FFAF10" d="M27.846 89.883c-1.13-2.728-1.963-3.56-4.69-4.69a.569.569 0 0 1-.3-.286c-.262.122-.541.246-.847.373a.573.573 0 0 0 0 1.06c2.728 1.13 3.56 1.962 4.69 4.69a.572.572 0 0 0 1.06 0c.127-.306.25-.585.373-.847a.575.575 0 0 1-.286-.3"/>
    </g>
</svg>
