<svg xmlns="http://www.w3.org/2000/svg" xmlns:xlink="http://www.w3.org/1999/xlink" width="110" height="116" viewBox="0 0 110 116">
    <defs>
        <linearGradient id="a" x1="50%" x2="50%" y1="1.881%" y2="100%">
            <stop offset="0%" stop-color="#FCB563"/>
            <stop offset="100%" stop-color="#FF8842"/>
        </linearGradient>
        <path id="b" d="M.201.504H73.69v26.867H.201z"/>
        <path id="d" d="M.662.504h36.744v26.867H.662z"/>
        <path id="f" d="M0 .752h7.795v7.8H0z"/>
        <path id="h" d="M0 .168h13.417v13.427H0z"/>
    </defs>
    <g fill="none" fill-rule="evenodd" transform="translate(0 -1)">
        <circle cx="55" cy="62.5" r="54.5" fill="url(#a)" fill-rule="nonzero"/>
        <path fill="#F7D1B7" d="M31.871 47.16v-7.348c0-.055.003-.108.004-.162h-1.101a3.862 3.862 0 0 0-3.86 3.862v2.125a3.861 3.861 0 0 0 3.86 3.862h1.353a10.764 10.764 0 0 1-.256-2.338"/>
        <path fill="#E8C5AF" d="M78.785 39.65h-1.102c.001.055.004.107.004.161v7.35c0 .802-.09 1.585-.256 2.338h1.354c2.13 0 3.859-1.73 3.859-3.863v-2.123a3.862 3.862 0 0 0-3.86-3.863"/>
        <path fill="#AEC1ED" d="M86.529 75.265H74.063a1.302 1.302 0 0 1-.355.785l-9.675 9.683a.942.942 0 0 1-.666.285.932.932 0 0 1-.72-.347l-6.295-7.546a1.352 1.352 0 0 0-1.046-.511c-.398 0-.769.181-1.045.51l-6.295 7.547a.924.924 0 0 1-.719.347.942.942 0 0 1-.666-.285l-9.675-9.683a1.297 1.297 0 0 1-.355-.785H24.085c-3.972 0-7.205 3.235-7.205 7.211v18.568c10.732 7.984 24.027 12.71 38.427 12.71 14.4 0 27.695-4.726 38.426-12.71V82.475c0-3.975-3.232-7.21-7.204-7.21"/>
        <path fill="#B7092B" d="M51.485 97.497l1.477 2.968c1.29 2.594 3.4 2.594 4.69 0l1.477-2.968-1.559-8.35 4.348-4.35-5.565-6.673a1.353 1.353 0 0 0-1.046-.51c-.4 0-.77.18-1.045.51l-5.566 6.672 4.348 4.352-1.56 8.349z"/>
        <path fill="#293D7C" d="M74.063 75.265a1.302 1.302 0 0 1-.355.785l-8.045 8.052-8.01 16.1c-1.29 2.593-3.401 2.593-4.691 0l-8.01-16.1-8.046-8.052a1.297 1.297 0 0 1-.355-.785H24.085c-3.972 0-7.205 3.235-7.205 7.211l-.005 18.68c2.77 2.67 15.252 15.855 38.299 15.844 23.046-.011 34.795-12.56 38.56-15.956V82.475c0-3.975-3.233-7.21-7.205-7.21H74.063z"/>
        <path fill="#1A2B63" d="M22.102 82.476c0-3.976 3.232-7.21 7.204-7.21h-5.22c-3.974 0-7.206 3.234-7.206 7.21v18.568a39.19 39.19 0 0 0 5.164 4.483l.058-23.051"/>
        <path fill="#FFF" d="M69.814 68.113a22.992 22.992 0 0 1-14.507 5.138A22.992 22.992 0 0 1 40.8 68.113l-4.259 6.113c-.413.594-.333 1.499.179 2.011l9.675 9.683c.511.512 1.31.476 1.773-.08l6.296-7.546c.463-.556 1.222-.556 1.686 0l6.295 7.546a1.185 1.185 0 0 0 1.774.08l9.675-9.683c.512-.512.592-1.417.179-2.011l-4.259-6.113z"/>
        <path fill="#D9EAFC" d="M41.764 74.226l2.601-3.736a23.22 23.22 0 0 1-3.565-2.378l-4.259 6.114c-.413.594-.333 1.499.179 2.011l9.675 9.683c.512.512 1.31.476 1.773-.08l1.533-1.838-7.76-7.765c-.51-.512-.591-1.417-.177-2.011"/>
        <path fill="#DB722C" d="M65.846 10.973a12.8 12.8 0 0 0-4.928.982 16.1 16.1 0 0 1 3.212 6.618c8.535 1.652 14.55 6.251 14.55 16.045V23.817c0-7.094-5.746-12.844-12.834-12.844"/>
        <path fill="#EF8318" d="M55.307 17.818c3.256 0 6.357.247 9.173.824-1.592-7.43-8.187-13.002-16.088-13.002-9.09 0-16.458 7.373-16.458 16.47v12.508c0-12.918 10.464-16.8 23.373-16.8"/>
        <path fill="#DB722C" d="M36.575 23.004v-.894c0-8.31 6.152-15.179 14.146-16.305a16.42 16.42 0 0 0-2.329-.165c-9.09 0-16.458 7.374-16.458 16.47v12.509c0-5.248 1.725-9.004 4.641-11.615"/>
        <path fill="#F7D1B7" d="M78.68 48.947c0 13.568-10.465 24.567-23.372 24.567-12.91 0-23.374-10.999-23.374-24.567V32.385c0-13.568 10.464-17.645 23.374-17.645 12.908 0 23.372 4.077 23.372 17.645v16.562z"/>
        <path fill="#E8C5AF" d="M36.575 48.947V32.385c0-12.744 9.233-17.114 21.053-17.599a58.597 58.597 0 0 0-2.32-.046c-12.91 0-23.373 4.077-23.373 17.645v16.562c0 13.568 10.463 24.567 23.372 24.567.783 0 1.558-.042 2.32-.12-11.819-1.226-21.052-11.702-21.052-24.447"/>
        <path fill="#88553B" d="M43.876 47.967a2.853 2.853 0 0 1-2.851-2.854v-.041a2.852 2.852 0 1 1 5.703 0v.041a2.853 2.853 0 0 1-2.852 2.854M69.729 47.967a2.852 2.852 0 0 1-2.852-2.854v-.041a2.852 2.852 0 1 1 5.703 0v.041a2.854 2.854 0 0 1-2.851 2.854"/>
        <path fill="#A53535" d="M60.726 64.19c0 1.858-2.405 3.364-5.372 3.364s-5.373-1.506-5.373-3.364c0-1.858 2.406-3.364 5.373-3.364s5.372 1.506 5.372 3.364"/>
        <path fill="#F87EAB" d="M54.907 64.275h2.402c1.187 0 2.247.476 2.946 1.218a6.652 6.652 0 0 0 1.726-4.476c0-.866-.7-1.567-1.564-1.567h-10.22c-.864 0-1.564.701-1.564 1.567a6.676 6.676 0 0 0 2.726 5.38c.55-1.239 1.931-2.122 3.548-2.122"/>
        <path fill="#E26693" d="M53.58 64.486a6.638 6.638 0 0 1-.976-3.47c0-.865.7-1.566 1.565-1.566h-3.971c-.865 0-1.565.701-1.565 1.567a6.675 6.675 0 0 0 2.727 5.38c.39-.88 1.201-1.579 2.22-1.91"/>
        <path fill="#88553B" d="M56.663 53.112h-1.527a1.954 1.954 0 0 1-1.95-1.953v-3.62a1.272 1.272 0 1 1 2.543 0v3.026h.934a1.273 1.273 0 0 1 0 2.547"/>
        <path fill="#1A2B63" d="M78.969 16.07v15.082L55.142 41.925 31.46 31.152V16.07z"/>
        <path fill="#162551" d="M78.969 16.07v15.082L55.142 41.925V16.07z"/>
        <path fill="#FDBF00" d="M91.251 14.47v15.995h-1.997V15.47z"/>
        <path fill="#FF9F00" d="M91.251 14.47v15.995h-.999V14.969z"/>
        <path fill="#FFD400" d="M90.252 29.045l-2.996 2.999v7.485h5.994v-7.485z"/>
        <path fill="#FDBF00" d="M93.25 32.044v7.484h-2.998V29.045z"/>
        <g transform="translate(18.197 .504)">
            <mask id="c" fill="#fff">
                <use xlink:href="#b"/>
            </mask>
            <path fill="#293D7C" d="M73.69 13.987L36.944 27.371.201 13.987 36.945.504z" mask="url(#c)"/>
        </g>
        <g transform="translate(54.48 .504)">
            <mask id="e" fill="#fff">
                <use xlink:href="#d"/>
            </mask>
            <path fill="#1A2B63" d="M37.406 13.987L.662 27.371V.504z" mask="url(#e)"/>
        </g>
        <path fill="#FFD00D" d="M11.802 35.28a.693.693 0 0 1-.637-.426c-1.36-3.285-2.362-4.288-5.644-5.648a.69.69 0 0 1 0-1.277c3.282-1.362 4.285-2.364 5.644-5.65a.693.693 0 0 1 1.276 0c1.36 3.286 2.363 4.288 5.644 5.65a.69.69 0 0 1 0 1.277c-3.281 1.36-4.285 2.363-5.644 5.648a.693.693 0 0 1-.639.427"/>
        <g transform="translate(5.094 26.728)">
            <mask id="g" fill="#fff">
                <use xlink:href="#f"/>
            </mask>
            <path fill="#FFAF10" d="M7.451 6.744C6.091 3.46 5.09 2.456 1.806 1.096a.686.686 0 0 1-.36-.344c-.315.147-.65.295-1.02.448a.69.69 0 0 0 0 1.277C3.71 3.838 4.711 4.841 6.07 8.126a.69.69 0 0 0 1.276 0c.153-.37.3-.706.449-1.021a.684.684 0 0 1-.344-.361" mask="url(#g)"/>
        </g>
        <path fill="#FFD00D" d="M18.344 68.754a.708.708 0 0 1-.655-.437c-1.396-3.373-2.425-4.402-5.795-5.799a.71.71 0 0 1 0-1.311c3.37-1.397 4.399-2.427 5.795-5.799a.71.71 0 0 1 1.309 0c1.397 3.372 2.426 4.402 5.795 5.799a.709.709 0 0 1 0 1.311c-3.37 1.396-4.398 2.426-5.795 5.799a.707.707 0 0 1-.654.437"/>
        <path fill="#FFAF10" d="M19.106 66.898c-1.396-3.373-2.424-4.402-5.795-5.798a.705.705 0 0 1-.37-.355c-.323.153-.668.305-1.047.461a.71.71 0 0 0 0 1.312c3.37 1.397 4.399 2.426 5.795 5.798a.708.708 0 0 0 1.31 0c.156-.379.308-.724.46-1.048a.705.705 0 0 1-.353-.37"/>
        <g transform="translate(95.803 83.211)">
            <mask id="i" fill="#fff">
                <use xlink:href="#h"/>
            </mask>
            <path fill="#FFD00D" d="M6.708 13.595a.693.693 0 0 1-.638-.426C4.711 9.884 3.709 8.88.427 7.52a.69.69 0 0 1 0-1.276C3.709 4.882 4.71 3.879 6.07.594a.693.693 0 0 1 1.277 0c1.359 3.285 2.362 4.288 5.643 5.65a.69.69 0 0 1 0 1.276C9.71 8.881 8.706 9.884 7.347 13.17a.693.693 0 0 1-.639.426" mask="url(#i)"/>
        </g>
        <path fill="#FFAF10" d="M103.254 94.998c-1.36-3.284-2.362-4.287-5.645-5.648a.686.686 0 0 1-.36-.344c-.315.147-.65.295-1.02.449a.69.69 0 0 0 0 1.277c3.283 1.36 4.285 2.363 5.644 5.648a.69.69 0 0 0 1.276 0c.154-.37.3-.706.449-1.02a.684.684 0 0 1-.344-.362"/>
        <path fill="#FFD00D" d="M95.456 61.105a.546.546 0 0 1-.504-.336c-1.073-2.597-1.866-3.39-4.46-4.465a.546.546 0 0 1 0-1.008c2.594-1.076 3.387-1.87 4.46-4.465a.546.546 0 0 1 1.009 0c1.074 2.596 1.867 3.389 4.46 4.465a.545.545 0 0 1 0 1.008c-2.593 1.076-3.386 1.868-4.46 4.465a.546.546 0 0 1-.505.336"/>
        <path fill="#FFAF10" d="M96.044 59.677c-1.075-2.596-1.868-3.39-4.461-4.464a.542.542 0 0 1-.285-.273c-.25.117-.515.234-.807.355a.547.547 0 0 0 0 1.01c2.595 1.075 3.388 1.867 4.461 4.464a.546.546 0 0 0 1.009 0c.12-.292.237-.559.355-.807a.55.55 0 0 1-.272-.285"/>
    </g>
</svg>
