<svg xmlns="http://www.w3.org/2000/svg" xmlns:xlink="http://www.w3.org/1999/xlink" width="110" height="110" viewBox="0 0 110 110">
    <defs>
        <linearGradient id="a" x1="50%" x2="50%" y1="1.881%" y2="100%">
            <stop offset="0%" stop-color="#FCB563"/>
            <stop offset="100%" stop-color="#FF8842"/>
        </linearGradient>
        <path id="b" d="M.799.381h63.689v19.524H.798z"/>
        <path id="d" d="M.17.381h41.537v19.524H.17z"/>
        <path id="f" d="M0 .364h40.55V35.26H0z"/>
    </defs>
    <g fill="none" fill-rule="evenodd">
        <circle cx="55" cy="55" r="55" fill="url(#a)" fill-rule="nonzero"/>
        <path fill="#1A2B63" d="M97.343 19.319v63.089c0 1.355-1.075 2.42-2.443 2.42L55.643 89.83c0 5.324-6.84 9.68-12.216 9.68-5.374 0-9.937-4.356-9.937-9.68V36.422L53.2 16.898h41.7c1.368 0 2.443 1.065 2.443 2.42"/>
        <path fill="#293D7C" d="M97.343 19.319v63.089c0 1.355-1.075 2.42-2.443 2.42L65.58 88.62V16.9H94.9c1.368 0 2.443 1.064 2.443 2.42"/>
        <path fill="#FFF" d="M87.57 34.002c0 1.355-1.075 2.42-2.443 2.42H60.693c-1.368 0-2.444-1.065-2.444-2.42s1.076-2.42 2.444-2.42h24.434c1.368 0 2.443 1.065 2.443 2.42M90.111 43.683c0 1.355-1.124 2.42-2.443 2.42H45.87c-1.37 0-2.444-1.065-2.444-2.42s1.075-2.42 2.444-2.42h41.797c1.318 0 2.443 1.065 2.443 2.42M90.111 53.364c0 1.355-1.124 2.42-2.443 2.42H55.644c-1.37 0-2.444-1.065-2.444-2.42s1.075-2.42 2.444-2.42h32.024c1.318 0 2.443 1.065 2.443 2.42M90.111 63.045c0 1.355-1.075 2.42-2.443 2.42H55.245c-1.367 0-2.443-1.065-2.443-2.42s1.076-2.42 2.443-2.42h32.423c1.368 0 2.443 1.065 2.443 2.42M90.111 72.726c0 1.26-1.055 2.227-2.52 2.372-.117.049-.294.049-.41.049H56.024c-1.641 0-2.93-1.066-2.93-2.42 0-1.357 1.289-2.421 2.93-2.421H87.18c.117 0 .294 0 .41.049 1.466.144 2.521 1.113 2.521 2.371"/>
        <path fill="#3A89DB" d="M53.2 34.002V16.899h-2.443c-.649 0-1.269.255-1.727.71L34.206 32.29a2.408 2.408 0 0 0-.715 1.71v2.421h17.266c1.35 0 2.444-1.084 2.444-2.42"/>
        <path fill="#D9EAFC" d="M87.702 65.465H65.518v-4.84h22.184c1.369 0 2.443 1.065 2.443 2.42 0 1.356-1.074 2.42-2.443 2.42M87.614 55.784H65.517v-4.84h22.097c1.319 0 2.443 1.065 2.443 2.42 0 1.356-1.125 2.42-2.443 2.42M85.127 36.422H65.58v-4.84h19.547c1.368 0 2.443 1.065 2.443 2.42 0 1.356-1.075 2.42-2.443 2.42M87.668 46.103H65.579v-4.84h22.089c1.32 0 2.443 1.065 2.443 2.42 0 1.356-1.125 2.42-2.443 2.42"/>
        <g transform="translate(42.629 79.606)">
            <mask id="c" fill="#fff">
                <use xlink:href="#b"/>
            </mask>
            <path fill="#FFF" d="M64.488 2.802v5.002c0 6.68-5.473 12.101-12.216 12.101H.799c5.375 0 9.773-4.356 9.773-9.68V2.801c0-1.356 1.074-2.42 2.443-2.42h49.03c1.367 0 2.443 1.064 2.443 2.42" mask="url(#c)"/>
        </g>
        <g transform="translate(65.41 79.606)">
            <mask id="e" fill="#fff">
                <use xlink:href="#d"/>
            </mask>
            <path fill="#D9EAFC" d="M41.707 2.802v5.002c0 6.68-5.473 12.101-12.216 12.101H.17V.381h39.094c1.368 0 2.443 1.065 2.443 2.42" mask="url(#e)"/>
        </g>
        <path fill="#D9EAFC" d="M15.043 66.24v-6.536c0-3.397 3.166-5.924 5.716-5.924h6.154c4.308 0 6.595 2.527 6.595 5.924v6.537h5.276v-6.537c0-6.272-4.66-11.15-11.871-11.15h-6.154c-5.452 0-10.992 4.878-10.992 11.15v6.537h5.276z"/>
        <path fill="#FFF" d="M27.792 48.555h-3.956v5.225h3.956c3.43 0 5.716 2.526 5.716 5.923v6.537h5.276v-6.537c0-6.271-4.66-11.148-10.992-11.148"/>
        <path fill="#347EC1" d="M44.551 95.155c0 3.4-2.08 5.974-5.51 5.974H10.55c-3.432 0-6.55-2.574-6.55-5.974V70.149c0-3.4 3.118-3.915 6.55-3.915h28.49c3.43 0 5.51.515 5.51 3.915v25.006z"/>
        <g transform="translate(4 65.87)">
            <mask id="g" fill="#fff">
                <use xlink:href="#f"/>
            </mask>
            <path fill="#3A89DB" d="M0 4.279C0 .879 3.119.364 6.55.364h28.49c3.432 0 5.51.515 5.51 3.915v25.006c0 3.4-2.078 5.974-5.51 5.974" mask="url(#g)"/>
        </g>
        <path fill="#FFF" d="M8.159 95.052a.928.928 0 0 1-.935.927h-.209a.928.928 0 0 1-.936-.927v-18.62c0-.516.416-.928.936-.928h.209c.519 0 .935.412.935.927v18.621z"/>
        <path fill="#293D7C" d="M29.89 81.993c0-2.885-2.288-5.253-5.199-5.253-2.91 0-5.095 2.368-5.095 5.253 0 2.06 1.04 3.708 3.12 4.635v4.407c0 1.34.727 2.37 2.078 2.37 1.353 0 2.081-1.03 2.081-2.37v-4.407c2.08-.927 3.015-2.575 3.015-4.635"/>
        <path fill="#1A2B63" d="M24.587 93.404c1.352 0 2.289-1.03 2.289-2.369v-4.407c2.079-.824 3.014-2.575 3.014-4.635 0-2.885-2.392-5.253-5.303-5.253"/>
        <path fill="#FFD00D" d="M20.006 22.128a.84.84 0 0 1-.775-.512c-1.649-3.947-2.866-5.15-6.848-6.785a.83.83 0 0 1-.518-.767c0-.336.204-.638.518-.767 3.983-1.635 5.2-2.84 6.848-6.785a.838.838 0 0 1 .775-.511c.339 0 .644.202.774.511 1.65 3.945 2.866 5.15 6.849 6.785.314.129.518.431.518.767a.83.83 0 0 1-.518.767c-3.983 1.635-5.2 2.838-6.85 6.785a.839.839 0 0 1-.773.512"/>
        <path fill="#FFAF10" d="M20.907 19.956c-1.65-3.946-2.867-5.15-6.85-6.785a.83.83 0 0 1-.436-.413c-.383.178-.79.355-1.238.539a.831.831 0 0 0-.518.767.83.83 0 0 0 .518.767c3.982 1.634 5.2 2.839 6.849 6.784.128.31.434.513.774.513a.838.838 0 0 0 .774-.513c.186-.444.365-.847.544-1.226a.834.834 0 0 1-.417-.433"/>
        <path fill="#FFD00D" d="M12.175 43.57a.643.643 0 0 1-.593-.393c-1.263-3.02-2.193-3.942-5.243-5.193a.635.635 0 0 1 0-1.175c3.05-1.252 3.98-2.173 5.243-5.194a.644.644 0 0 1 1.185 0c1.263 3.021 2.194 3.942 5.244 5.194a.635.635 0 0 1 0 1.174c-3.05 1.252-3.98 2.174-5.244 5.194a.641.641 0 0 1-.592.392"/>
        <path fill="#FFAF10" d="M12.865 41.906c-1.263-3.02-2.194-3.942-5.244-5.193a.645.645 0 0 1-.335-.317c-.292.137-.604.273-.946.414a.635.635 0 0 0 0 1.174c3.048 1.25 3.98 2.173 5.242 5.193a.643.643 0 0 0 1.185 0c.142-.34.281-.648.417-.939a.636.636 0 0 1-.32-.332"/>
        <path fill="#FFD00D" d="M34.048 40.544a.728.728 0 0 1-.672-.444c-1.429-3.42-2.484-4.465-5.937-5.881a.72.72 0 0 1-.448-.666.72.72 0 0 1 .448-.664c3.453-1.418 4.508-2.461 5.937-5.882a.728.728 0 0 1 1.343 0c1.43 3.42 2.485 4.464 5.938 5.882a.72.72 0 0 1 .448.664.72.72 0 0 1-.448.666c-3.453 1.416-4.507 2.46-5.938 5.88a.728.728 0 0 1-.671.445"/>
        <path fill="#FFAF10" d="M34.83 38.661c-1.431-3.42-2.486-4.464-5.939-5.88a.723.723 0 0 1-.379-.36c-.33.154-.684.308-1.073.468a.72.72 0 0 0-.448.665.72.72 0 0 0 .448.665c3.453 1.416 4.508 2.46 5.937 5.88a.727.727 0 0 0 .672.445.728.728 0 0 0 .671-.444c.16-.385.316-.735.472-1.063a.72.72 0 0 1-.362-.376"/>
    </g>
</svg>
