<svg xmlns="http://www.w3.org/2000/svg" xmlns:xlink="http://www.w3.org/1999/xlink" width="110" height="110" viewBox="0 0 110 110">
    <defs>
        <linearGradient id="a" x1="50%" x2="50%" y1="1.881%" y2="100%">
            <stop offset="0%" stop-color="#FCB563"/>
            <stop offset="100%" stop-color="#FF8842"/>
        </linearGradient>
        <path id="b" d="M.98.444h87.362v96.555H.981z"/>
        <path id="d" d="M.212.444h87.13v96.325H.212z"/>
        <path id="f" d="M0 101.848h105.342V0H0z"/>
    </defs>
    <g fill="none" fill-rule="evenodd">
        <circle cx="55" cy="55" r="55" fill="url(#a)" fill-rule="nonzero"/>
        <g transform="translate(0 8)">
            <path fill="#F6B545" d="M57.064 101.848H6.486c-1.379 0-2.299-.92-2.299-2.3v-4.597c0-1.38.92-2.3 2.3-2.3h50.577c1.38 0 2.3.92 2.3 2.3v4.598c0 1.38-.92 2.299-2.3 2.299"/>
            <path fill="#FFCB5B" d="M47.868 94.95H4.187c0-1.378.92-2.298 2.299-2.298h41.382v2.299z"/>
            <path fill="#F19920" d="M47.868 94.95v2.3c0 1.38-.92 2.299-2.3 2.299H4.188c0 1.38.92 2.299 2.299 2.299H57.064c1.379 0 2.299-.92 2.299-2.3v-4.597H47.868z"/>
            <path fill="#F19920" d="M11.085 99.549v-3.448c0-.69-.46-1.15-1.15-1.15s-1.15.46-1.15 1.15v3.448M17.981 99.549v-3.448c0-.69-.46-1.15-1.149-1.15-.69 0-1.15.46-1.15 1.15v3.448M24.879 99.549v-3.448c0-.69-.46-1.15-1.15-1.15s-1.15.46-1.15 1.15v3.448M31.775 99.549v-3.448c0-.69-.46-1.15-1.149-1.15-.69 0-1.15.46-1.15 1.15v3.448M38.672 99.549v-3.448c0-.69-.46-1.15-1.15-1.15s-1.15.46-1.15 1.15v3.448M45.569 99.549v-3.448c0-.69-.46-1.15-1.149-1.15-.69 0-1.15.46-1.15 1.15v3.448"/>
            <path fill="#F6B545" d="M61.662 92.652H11.085c-1.38 0-2.3-.919-2.3-2.299v-4.598c0-1.379.92-2.299 2.3-2.299h50.577c1.379 0 2.299.92 2.299 2.3v4.597c0 1.38-.92 2.3-2.3 2.3"/>
            <path fill="#FFCB5B" d="M52.465 85.755H8.785c0-1.379.92-2.299 2.3-2.299h41.38v2.3z"/>
            <path fill="#F19920" d="M52.465 85.755v2.3c0 1.378-.919 2.298-2.299 2.298H8.786c0 1.38.918 2.3 2.299 2.3H61.66c1.38 0 2.3-.92 2.3-2.3v-4.598H52.466z"/>
            <path fill="#F19920" d="M15.682 90.353v-3.449c0-.689-.46-1.149-1.149-1.149-.69 0-1.15.46-1.15 1.15v3.448M22.579 90.353v-3.449c0-.689-.46-1.149-1.15-1.149s-1.15.46-1.15 1.15v3.448M29.476 90.353v-3.449c0-.689-.46-1.149-1.149-1.149-.69 0-1.15.46-1.15 1.15v3.448M36.373 90.353v-3.449c0-.689-.46-1.149-1.15-1.149s-1.15.46-1.15 1.15v3.448M43.27 90.353v-3.449c0-.689-.46-1.149-1.149-1.149-.69 0-1.15.46-1.15 1.15v3.448M50.167 90.353v-3.449c0-.689-.46-1.149-1.15-1.149s-1.15.46-1.15 1.15v3.448"/>
            <path fill="#F6B545" d="M66.26 74.26H15.681c-1.379 0-2.299-.92-2.299-2.299v-4.597c0-1.38.92-2.3 2.3-2.3h50.576c1.38 0 2.3.92 2.3 2.3v4.597c0 1.38-.92 2.3-2.3 2.3"/>
            <path fill="#FFCB5B" d="M57.064 67.364h-43.68c0-1.38.92-2.3 2.298-2.3h41.382v2.3z"/>
            <path fill="#F19920" d="M57.064 67.364v2.298c0 1.38-.92 2.3-2.299 2.3H13.383c0 1.379.92 2.298 2.3 2.298h50.576c1.38 0 2.3-.92 2.3-2.299v-4.597H57.063z"/>
            <path fill="#F19920" d="M20.28 71.962v-3.45c0-.688-.459-1.148-1.149-1.148s-1.15.46-1.15 1.149v3.449M27.177 71.962v-3.45c0-.688-.46-1.148-1.149-1.148-.69 0-1.15.46-1.15 1.149v3.449M34.074 71.962v-3.45c0-.688-.46-1.148-1.15-1.148s-1.15.46-1.15 1.149v3.449M40.971 71.962v-3.45c0-.688-.46-1.148-1.149-1.148-.69 0-1.15.46-1.15 1.149v3.449M47.868 71.962v-3.45c0-.688-.46-1.148-1.15-1.148s-1.15.46-1.15 1.149v3.449M54.765 71.962v-3.45c0-.688-.46-1.148-1.15-1.148s-1.15.46-1.15 1.149v3.449"/>
            <path fill="#F6B545" d="M61.662 65.065H11.085c-1.38 0-2.3-.92-2.3-2.3v-4.597c0-1.38.92-2.3 2.3-2.3h50.577c1.379 0 2.299.92 2.299 2.3v4.598c0 1.379-.92 2.299-2.3 2.299"/>
            <path fill="#FFCB5B" d="M52.465 58.168H8.785c0-1.38.92-2.3 2.3-2.3h41.38v2.3z"/>
            <path fill="#F19920" d="M52.465 58.168v2.299c0 1.379-.919 2.299-2.299 2.299H8.786c0 1.379.918 2.299 2.299 2.299H61.66c1.38 0 2.3-.92 2.3-2.3v-4.597H52.466z"/>
            <path fill="#F19920" d="M15.682 62.765v-3.448c0-.69-.46-1.15-1.149-1.15-.69 0-1.15.46-1.15 1.15v3.448M22.579 62.765v-3.448c0-.69-.46-1.15-1.15-1.15s-1.15.46-1.15 1.15v3.448M29.476 62.765v-3.448c0-.69-.46-1.15-1.149-1.15-.69 0-1.15.46-1.15 1.15v3.448M36.373 62.765v-3.448c0-.69-.46-1.15-1.15-1.15s-1.15.46-1.15 1.15v3.448M43.27 62.765v-3.448c0-.69-.46-1.15-1.149-1.15-.69 0-1.15.46-1.15 1.15v3.448M50.167 62.765v-3.448c0-.69-.46-1.15-1.15-1.15s-1.15.46-1.15 1.15v3.448"/>
            <path fill="#F6B545" d="M57.064 83.456H6.486c-1.379 0-2.299-.919-2.299-2.299V76.56c0-1.379.92-2.299 2.3-2.299h50.577c1.38 0 2.3.92 2.3 2.3v4.597c0 1.38-.92 2.3-2.3 2.3"/>
            <path fill="#FFCB5B" d="M47.868 76.56H4.187c0-1.38.92-2.3 2.299-2.3h41.382v2.3z"/>
            <path fill="#F19920" d="M47.868 76.56v2.298c0 1.38-.92 2.3-2.3 2.3H4.188c0 1.38.92 2.298 2.299 2.298H57.064c1.379 0 2.299-.919 2.299-2.299V76.56H47.868z"/>
            <path fill="#F19920" d="M11.085 81.157v-3.449c0-.689-.46-1.149-1.15-1.149s-1.15.46-1.15 1.15v3.448M17.981 81.157v-3.449c0-.689-.46-1.149-1.149-1.149-.69 0-1.15.46-1.15 1.15v3.448M24.879 81.157v-3.449c0-.689-.46-1.149-1.15-1.149s-1.15.46-1.15 1.15v3.448M31.775 81.157v-3.449c0-.689-.46-1.149-1.149-1.149-.69 0-1.15.46-1.15 1.15v3.448M38.672 81.157v-3.449c0-.689-.46-1.149-1.15-1.149s-1.15.46-1.15 1.15v3.448M45.569 81.157v-3.449c0-.689-.46-1.149-1.149-1.149-.69 0-1.15.46-1.15 1.15v3.448"/>
            <g transform="translate(17 4.848)">
                <mask id="c" fill="#fff">
                    <use xlink:href="#b"/>
                </mask>
                <path fill="#1A2B63" d="M83.744 82.056c-2.988-2.069-4.598-5.517-4.598-9.195 0-14.024-5.517-27.358-15.403-37.244l-9.885-9.885v-6.898L61.904 8.72c.69-.92 1.15-2.07 1.15-3.22 0-2.757-2.3-5.056-5.058-5.056H49.26l-2.3 4.598L42.364.444H31.328c-2.76 0-5.058 2.299-5.058 5.056 0 1.15.46 2.3 1.15 3.22l8.046 10.114v6.898l-9.885 9.886c-9.886 9.886-15.403 23.22-15.403 37.242 0 3.678-1.61 7.127-4.6 9.197C2.592 84.126.982 87.573.982 91.251.98 94.472 3.51 97 6.729 97h75.866c3.218 0 5.748-2.528 5.748-5.748 0-3.677-1.61-7.126-4.6-9.195" mask="url(#c)"/>
            </g>
            <g transform="translate(18 4.848)">
                <mask id="e" fill="#fff">
                    <use xlink:href="#d"/>
                </mask>
                <path fill="#293D7C" d="M82.744 82.056c-2.988-2.299-4.598-5.746-4.598-9.425.23-14.483-6.437-28.047-16.552-38.392l-8.736-8.507v-6.898L60.904 8.72c1.379-1.61 1.61-3.909.46-5.978-.92-1.609-2.76-2.298-4.598-2.298-1.61 0-2.53 1.839-2.07 3.218.23.46.46 1.15.46 1.838 0 1.15-.46 2.3-1.148 3.22L45.96 18.834v6.898H34.466l-2.3 2.3H48.26l8.506 8.504c9.426 9.426 13.104 22.301 12.185 35.406-.23 3.908 1.379 7.586 4.367 9.886.23.228.46.459.69.459 3.449 3.677.46 9.885-4.827 9.885H.21c.46 2.53 2.76 4.597 5.518 4.597h75.866c3.218 0 5.748-2.528 5.748-5.747v-.46c0-3.447-1.84-6.436-4.6-8.505" mask="url(#e)"/>
            </g>
            <path fill="#FFCB5B" d="M72.007 30.58h-20.69c-1.84 0-3.45-1.61-3.45-3.448 0-1.84 1.61-3.45 3.45-3.45h20.69c1.84 0 3.448 1.61 3.448 3.45 0 1.839-1.608 3.448-3.448 3.448"/>
            <path fill="#FFE278" d="M51.316 23.683h11.495c.69 0 1.15.46 1.15 1.15 0 .689-.46 1.149-1.15 1.149H51.316c-.689 0-1.149-.46-1.149-1.15s.46-1.15 1.15-1.15"/>
            <path fill="#F6B545" d="M72.007 23.683H70.86v2.299c0 1.38-.92 2.299-2.3 2.299H48.096c.46 1.38 1.84 2.299 3.22 2.299h20.69c1.84 0 3.448-1.61 3.448-3.448 0-1.84-1.608-3.45-3.448-3.45"/>
            <path fill="#F19920" d="M65.11 28.281h6.897c.69 0 1.15.46 1.15 1.149 0 .69-.46 1.15-1.15 1.15H65.11c-.689 0-1.149-.46-1.149-1.15 0-.689.46-1.149 1.149-1.149"/>
            <mask id="g" fill="#fff">
                <use xlink:href="#f"/>
            </mask>
            <path fill="#F6B545" d="M59.363 48.972h4.598V30.58h-4.598z" mask="url(#g)"/>
            <path fill="#F19920" d="M59.363 30.58v2.299h2.299v16.093h2.299V30.579z" mask="url(#g)"/>
            <path fill="#FFF" d="M79.657 58.489l-.001-.03c-.02-.381-.031-.783-.038-1.231-.034-2.182-1.866-3.988-4.171-4.11-4.806-.254-8.523-1.738-11.701-4.67l-.027-.024a2.766 2.766 0 0 0-1.782-.673 2.754 2.754 0 0 0-1.852.673l-.03.024c-3.175 2.932-6.893 4.416-11.698 4.67-2.305.122-4.138 1.928-4.172 4.11-.007.445-.018.847-.037 1.231l-.002.071c-.093 4.641-.21 10.417 1.83 15.659 1.122 2.883 2.822 5.389 5.05 7.45 2.539 2.345 5.863 4.208 9.882 5.535a3.258 3.258 0 0 0 .993.16h.036a3.077 3.077 0 0 0 .959-.161c4.014-1.329 7.335-3.193 9.87-5.538 2.229-2.061 3.928-4.568 5.052-7.451 2.047-5.258 1.932-11.045 1.839-15.695" mask="url(#g)"/>
            <path fill="#3A89DB" d="M75.458 73.302c-1.09 2.953-2.737 5.521-4.898 7.631-2.46 2.402-5.68 4.31-9.574 5.672a2.897 2.897 0 0 1-.93.164h-.035a2.9 2.9 0 0 1-.962-.164c-3.898-1.359-7.122-3.266-9.584-5.668-2.163-2.111-3.81-4.677-4.898-7.63-1.978-5.368-1.866-11.283-1.775-16.036v-.073c.019-.392.03-.804.038-1.26a4.296 4.296 0 0 1 4.045-4.209c4.66-.26 8.266-1.78 11.347-4.782l.027-.025a2.595 2.595 0 0 1 3.525 0l.027.025c3.082 3.002 6.687 4.522 11.347 4.782a4.297 4.297 0 0 1 4.046 4.209c.006.459.019.87.036 1.26v.031c.092 4.762.203 10.688-1.782 16.073" mask="url(#g)"/>
            <path fill="#347EC1" d="M75.458 73.302c-1.09 2.953-2.737 5.521-4.898 7.631-2.46 2.402-5.68 4.31-9.574 5.672a2.897 2.897 0 0 1-.93.164V46.232a2.599 2.599 0 0 1 1.728.69l.027.025c3.082 3.002 6.687 4.522 11.347 4.782a4.297 4.297 0 0 1 4.046 4.209c.006.459.019.87.036 1.26v.031c.092 4.762.203 10.688-1.782 16.073" mask="url(#g)"/>
            <path fill="#FFF" d="M70.124 66.5c0 5.56-4.514 10.083-10.067 10.103h-.036c-5.57 0-10.103-4.532-10.103-10.103 0-5.57 4.533-10.103 10.103-10.103h.036c5.553.02 10.067 4.545 10.067 10.103" mask="url(#g)"/>
            <path fill="#E1EBF0" d="M70.124 66.5c0 5.56-4.514 10.083-10.067 10.103V56.397c5.553.02 10.067 4.545 10.067 10.103" mask="url(#g)"/>
            <path fill="#293D7C" d="M64.606 65.045l-4.55 4.551-.983.983a1.184 1.184 0 0 1-.84.348c-.306 0-.61-.115-.843-.348l-2.114-2.115a1.19 1.19 0 0 1 1.683-1.682l1.273 1.274 4.692-4.693a1.19 1.19 0 0 1 1.682 1.682" mask="url(#g)"/>
            <path fill="#293D7C" d="M64.606 65.045l-4.55 4.551v-3.364l2.868-2.869a1.19 1.19 0 0 1 1.682 1.682" mask="url(#g)"/>
            <path fill="#FFD00D" d="M7.176 46.792a.741.741 0 0 1-.683-.456C5.04 42.824 3.967 41.752.455 40.298a.739.739 0 0 1 0-1.365c3.512-1.455 4.584-2.528 6.038-6.04a.741.741 0 0 1 1.366 0c1.455 3.512 2.527 4.585 6.04 6.04a.738.738 0 0 1 0 1.365c-3.513 1.454-4.585 2.526-6.04 6.038a.74.74 0 0 1-.683.456" mask="url(#g)"/>
            <path fill="#FFAF10" d="M7.971 44.859c-1.455-3.511-2.527-4.583-6.038-6.038a.731.731 0 0 1-.386-.368 27.16 27.16 0 0 1-1.092.48.739.739 0 0 0 0 1.365c3.512 1.455 4.584 2.526 6.038 6.038a.741.741 0 0 0 1.366 0c.164-.394.322-.754.48-1.091a.737.737 0 0 1-.368-.386" mask="url(#g)"/>
            <path fill="#FFD00D" d="M30.073 34.73a.563.563 0 0 1-.521-.349c-1.108-2.675-1.924-3.492-4.6-4.6a.564.564 0 0 1 0-1.04c2.676-1.109 3.492-1.926 4.6-4.602a.565.565 0 0 1 1.04 0c1.109 2.676 1.926 3.493 4.602 4.602a.562.562 0 0 1 0 1.04c-2.676 1.108-3.493 1.925-4.601 4.6a.562.562 0 0 1-.52.348" mask="url(#g)"/>
            <path fill="#FFAF10" d="M30.678 33.257c-1.108-2.676-1.926-3.493-4.602-4.601a.57.57 0 0 1-.294-.28c-.256.12-.53.24-.83.365a.562.562 0 0 0 0 1.04c2.675 1.109 3.492 1.926 4.6 4.6a.563.563 0 1 0 1.04 0c.125-.3.246-.574.366-.83a.567.567 0 0 1-.28-.294" mask="url(#g)"/>
            <path fill="#FFD00D" d="M44.696 58.817a.608.608 0 0 1-.562-.375c-1.198-2.892-2.081-3.774-4.971-4.97a.607.607 0 0 1 0-1.125c2.89-1.198 3.773-2.08 4.971-4.97a.61.61 0 0 1 1.124 0c1.197 2.89 2.08 3.772 4.97 4.97a.608.608 0 0 1 0 1.124c-2.89 1.197-3.773 2.08-4.97 4.971a.61.61 0 0 1-.562.375" mask="url(#g)"/>
            <path fill="#FFAF10" d="M45.35 57.226c-1.198-2.891-2.08-3.773-4.972-4.971a.61.61 0 0 1-.317-.303c-.277.13-.573.26-.899.395a.608.608 0 0 0 0 1.124c2.891 1.197 3.774 2.08 4.971 4.97a.61.61 0 0 0 1.124 0c.135-.324.265-.62.395-.898a.61.61 0 0 1-.303-.317" mask="url(#g)"/>
            <path fill="#FFD00D" d="M17.07 16.567a.852.852 0 0 1-.787-.526c-1.679-4.054-2.917-5.29-6.97-6.97a.853.853 0 1 1 0-1.575c4.054-1.679 5.291-2.917 6.97-6.97a.852.852 0 0 1 1.575 0c1.679 4.053 2.917 5.291 6.97 6.97a.854.854 0 0 1 0 1.575c-4.053 1.68-5.291 2.916-6.97 6.97a.852.852 0 0 1-.788.526" mask="url(#g)"/>
            <path fill="#FFAF10" d="M17.987 14.336c-1.679-4.053-2.916-5.29-6.969-6.969a.856.856 0 0 1-.445-.425c-.389.183-.804.365-1.26.554a.853.853 0 0 0 0 1.575c4.053 1.68 5.291 2.916 6.97 6.97a.852.852 0 0 0 1.575 0c.189-.456.372-.87.554-1.26a.856.856 0 0 1-.425-.445" mask="url(#g)"/>
        </g>
    </g>
</svg>
