<svg xmlns="http://www.w3.org/2000/svg" xmlns:xlink="http://www.w3.org/1999/xlink" width="110" height="110" viewBox="0 0 110 110">
    <defs>
        <linearGradient id="a" x1="50%" x2="50%" y1="1.881%" y2="100%">
            <stop offset="0%" stop-color="#FCB563"/>
            <stop offset="100%" stop-color="#FF8842"/>
        </linearGradient>
        <path id="b" d="M.353.5h26.313v27.033H.353z"/>
        <path id="d" d="M.148.419h61.197v55.964H.147z"/>
    </defs>
    <g fill="none" fill-rule="evenodd" transform="translate(0 -1)">
        <circle cx="55" cy="56" r="55" fill="url(#a)" fill-rule="nonzero"/>
        <g transform="translate(20 44.875)">
            <mask id="c" fill="#fff">
                <use xlink:href="#b"/>
            </mask>
            <path fill="#FFD9C0" d="M26.073 14.964a2.02 2.02 0 0 0 0-2.859L15.3 1.33C12.445 1.063 9.451.74 8.751.5L.945 8.19a2.02 2.02 0 0 0 0 2.857l6.82 6.754v.856c-.035 3.055 1.263 6.074 3.472 8.283.79.79 2.07.79 2.86 0l11.976-11.976z" mask="url(#c)"/>
        </g>
        <g transform="translate(28 34.875)">
            <mask id="e" fill="#fff">
                <use xlink:href="#d"/>
            </mask>
            <path fill="#E8C5AF" d="M51.003 36.085c1.671-1.671 2.525-3.904 2.526-6.289v-2.022l7.223-6.753a2.02 2.02 0 0 0 0-2.859L43.199 1.011a2.02 2.02 0 0 0-2.858 0l-6.754 6.754h-7.623c-.541 0-.992.269-1.363.633l-9.126 4.233L13.79 23.48 1.481 35.756a4.549 4.549 0 0 0 6.431 6.432 4.547 4.547 0 1 0 6.431 6.431 4.548 4.548 0 0 0 6.431 6.432l4.082-4.081 10.626.636 15.521-15.521z" mask="url(#e)"/>
        </g>
        <path fill="#F7D1B7" d="M67.483 61.041a4.055 4.055 0 0 0 0-5.717L55.391 43.232a1.895 1.895 0 0 0-1.429-.571l-6.146-.029-6.746-6.746a2.021 2.021 0 0 0-2.858 0l-9.46 9.462 13.033 13.034 2.944-2.944a8.087 8.087 0 0 1 11.435 0l5.602 5.603a4.055 4.055 0 0 0 5.717 0"/>
        <g>
            <path fill="#FFD9C0" d="M81.075 70.086l-5.002-5.002a4.548 4.548 0 0 0-6.432 6.432l.568 5.847 4.434-.845a4.548 4.548 0 0 0 6.432-6.432M68.212 82.95l-1.231-4.982-3.771-.02a4.548 4.548 0 0 0-6.432 6.43l1.166 1.167-.481 3.622 3.195-.909 1.122 1.123a4.548 4.548 0 0 0 6.432-6.432"/>
            <path fill="#FFD9C0" d="M74.644 82.95a4.548 4.548 0 0 1-6.432 0l-7.86-7.862a4.547 4.547 0 1 1 6.432-6.43l7.86 7.86a4.548 4.548 0 0 1 0 6.431M53.92 94.383l-2.144-2.144a4.547 4.547 0 1 1 6.432-6.43l2.144 2.142a4.548 4.548 0 0 1-6.432 6.432"/>
            <path fill="#3A89DB" d="M102.18 28.416a29.431 29.431 0 0 1 2.667 6.292 508.669 508.669 0 0 0-7.515 7.212 512.334 512.334 0 0 0-8.403 8.433l-9.211-9.21c6.1-6.111 12.2-12.223 18.3-18.332.218.244.537.61.913 1.064.938 1.134 2.103 2.552 3.25 4.541"/>
            <path fill="#347EC1" d="M90.723 14.75a74.107 74.107 0 0 1 8.014 8.866L80.479 41.903l-8.672-8.672A470.832 470.832 0 0 1 90.723 14.75"/>
            <path fill="#D9EAFC" d="M100.328 47.289c.473-.472.53-1.187.13-1.587L78.055 23.299c-.4-.401-1.116-.343-1.587.129l-8.906 8.905c-.47.472-.53 1.186-.13 1.588l22.404 22.402c.4.4 1.115.343 1.587-.13l8.905-8.904z"/>
            <path fill="#FFF" d="M98.212 47.947L75.809 25.544a1.034 1.034 0 0 0-1.458 0l2.893-2.893a1.034 1.034 0 0 1 1.458 0l22.403 22.402a1.034 1.034 0 0 1 0 1.458l-2.893 2.894c.4-.4.4-1.057 0-1.458"/>
            <path fill="#347EC1" d="M72.833 30.3a2.76 2.76 0 1 0 3.902 3.903 2.76 2.76 0 0 0-3.902-3.903"/>
            <path fill="#293D7C" d="M6.667 28.416A29.431 29.431 0 0 0 4 34.709a508.656 508.656 0 0 1 7.515 7.212 508.54 508.54 0 0 1 8.404 8.433l9.211-9.21c-6.1-6.111-12.2-12.223-18.3-18.332-.218.244-.538.61-.913 1.064-.938 1.134-2.103 2.552-3.25 4.541"/>
            <path fill="#1A2B63" d="M18.125 14.75a73.777 73.777 0 0 0-8.014 8.866L28.37 41.903l8.672-8.672A470.832 470.832 0 0 0 18.125 14.75"/>
            <path fill="#D9EAFC" d="M8.52 47.289c-.473-.472-.53-1.187-.13-1.587l22.403-22.403c.4-.401 1.116-.343 1.587.129l8.906 8.905c.47.472.53 1.186.129 1.588L19.012 56.323c-.4.4-1.115.343-1.587-.13L8.52 47.29z"/>
            <path fill="#FFF" d="M10.636 47.947l22.403-22.403a1.034 1.034 0 0 1 1.458 0l-2.893-2.893a1.034 1.034 0 0 0-1.458 0L7.743 45.053a1.034 1.034 0 0 0 0 1.458l2.893 2.894c-.4-.4-.4-1.057 0-1.458"/>
            <path fill="#1A2B63" d="M36.015 30.3a2.76 2.76 0 1 1-3.902 3.903 2.76 2.76 0 0 1 3.902-3.903"/>
            <path fill="#FFD00D" d="M16.18 103.875a.92.92 0 0 1-.85-.568c-1.81-4.373-3.145-5.708-7.518-7.519a.92.92 0 0 1 0-1.7c4.373-1.812 5.708-3.148 7.519-7.52a.92.92 0 0 1 1.7 0c1.81 4.372 3.147 5.708 7.52 7.52a.92.92 0 0 1 0 1.7c-4.373 1.811-5.71 3.146-7.52 7.519a.92.92 0 0 1-.85.568"/>
            <path fill="#FFAF10" d="M17.17 101.468c-1.812-4.373-3.146-5.708-7.52-7.52a.92.92 0 0 1-.48-.458c-.42.197-.867.395-1.358.598a.92.92 0 0 0 0 1.7c4.373 1.81 5.708 3.146 7.519 7.519a.92.92 0 0 0 1.699 0c.204-.491.402-.94.598-1.36a.919.919 0 0 1-.458-.48"/>
            <path fill="#FFD00D" d="M98.598 93.959a.882.882 0 0 1-.816-.547c-1.74-4.199-3.023-5.48-7.222-7.22a.884.884 0 0 1 0-1.632c4.2-1.742 5.482-3.023 7.222-7.222a.882.882 0 0 1 1.632 0c1.74 4.199 3.022 5.48 7.222 7.222a.883.883 0 0 1 0 1.632c-4.2 1.739-5.482 3.022-7.222 7.22a.882.882 0 0 1-.816.546"/>
            <path fill="#FFAF10" d="M99.547 91.647c-1.74-4.2-3.021-5.482-7.221-7.222a.885.885 0 0 1-.462-.44c-.402.189-.833.379-1.304.575a.883.883 0 0 0 0 1.632c4.199 1.74 5.482 3.022 7.22 7.22a.883.883 0 0 0 1.634 0c.195-.472.385-.902.573-1.305a.885.885 0 0 1-.44-.46"/>
            <path fill="#FFD00D" d="M33.348 17.375a.844.844 0 0 1-.78-.521c-1.658-4.005-2.881-5.229-6.887-6.888a.842.842 0 0 1 0-1.557c4.006-1.659 5.229-2.883 6.888-6.888a.843.843 0 0 1 1.557 0c1.66 4.005 2.883 5.229 6.889 6.888a.842.842 0 1 1 0 1.557c-4.006 1.659-5.23 2.883-6.89 6.888a.843.843 0 0 1-.777.521"/>
            <path fill="#FFAF10" d="M34.254 15.17c-1.659-4.006-2.883-5.23-6.889-6.888a.844.844 0 0 1-.44-.42c-.384.18-.794.36-1.244.547a.843.843 0 0 0 0 1.557c4.006 1.66 5.228 2.883 6.887 6.889a.845.845 0 0 0 1.558 0c.187-.451.367-.861.547-1.245a.839.839 0 0 1-.419-.44"/>
            <path fill="#FFD00D" d="M64.17 23.209a.516.516 0 0 1-.476-.32c-1.015-2.45-1.764-3.2-4.215-4.215a.516.516 0 0 1 0-.953c2.451-1.014 3.2-1.764 4.215-4.216a.515.515 0 0 1 .953 0c1.015 2.452 1.764 3.201 4.215 4.216a.515.515 0 0 1 0 .953c-2.451 1.015-3.2 1.765-4.215 4.216a.516.516 0 0 1-.477.319"/>
            <path fill="#FFAF10" d="M64.725 21.859c-1.015-2.452-1.764-3.2-4.215-4.215a.512.512 0 0 1-.27-.257c-.235.11-.486.22-.761.335a.515.515 0 0 0 0 .953c2.45 1.015 3.2 1.764 4.216 4.215a.514.514 0 0 0 .952 0c.114-.276.225-.527.335-.761a.525.525 0 0 1-.257-.27"/>
            <path fill="#FFD00D" d="M71.879 102.459a.582.582 0 0 1-.536-.359c-1.142-2.757-1.985-3.6-4.741-4.741a.58.58 0 0 1 0-1.072c2.757-1.143 3.599-1.985 4.741-4.742a.58.58 0 0 1 1.072 0c1.142 2.757 1.984 3.6 4.741 4.742a.58.58 0 0 1 0 1.072c-2.757 1.142-3.599 1.984-4.741 4.742a.582.582 0 0 1-.536.358"/>
            <path fill="#FFAF10" d="M72.502 100.94c-1.142-2.757-1.983-3.599-4.741-4.74a.582.582 0 0 1-.303-.29c-.265.124-.547.248-.856.377a.58.58 0 0 0 0 1.071c2.756 1.143 3.599 1.984 4.741 4.742a.582.582 0 0 0 1.072 0c.128-.31.253-.593.376-.857a.582.582 0 0 1-.289-.303"/>
            <path fill="#FFD00D" d="M10.379 66.959a.582.582 0 0 1-.536-.359C8.701 63.843 7.858 63 5.102 61.86a.58.58 0 0 1 0-1.072c2.757-1.142 3.599-1.984 4.741-4.742a.58.58 0 0 1 1.072 0c1.142 2.758 1.984 3.6 4.741 4.742a.58.58 0 0 1 0 1.072C12.899 63 12.057 63.841 10.915 66.6a.582.582 0 0 1-.536.359"/>
            <path fill="#FFAF10" d="M11.002 65.44c-1.142-2.757-1.983-3.599-4.741-4.74a.582.582 0 0 1-.303-.29c-.265.124-.547.248-.856.377a.58.58 0 0 0 0 1.071c2.756 1.143 3.599 1.984 4.741 4.742a.582.582 0 0 0 1.072 0c.128-.31.253-.593.376-.857a.582.582 0 0 1-.289-.303"/>
        </g>
    </g>
</svg>
