<svg xmlns="http://www.w3.org/2000/svg" width="320" height="674" viewBox="0 0 320 674">
    <g fill="none" fill-rule="evenodd">
        <path fill="#FFF" d="M39 252h242c8.284 0 15 6.716 15 15v307c0 8.284-6.716 15-15 15H39c-8.284 0-15-6.716-15-15V267c0-8.284 6.716-15 15-15z"/>
        <g fill="#F9FBFC">
            <path fill-rule="nonzero" d="M0 34h320v615H0z"/>
            <path d="M-95 12.59C7.403-4.196 91.948-4.196 158.635 12.59 280.995 43.395 366.783 39.378 416 .54V42H-95V12.59zM320 666.206c-64.127 10.392-117.071 10.392-158.832 0C84.543 647.137 30.82 649.624 0 673.666V648h320v18.206z"/>
        </g>
    </g>
</svg>
