<svg xmlns="http://www.w3.org/2000/svg" width="28" height="22" viewBox="0 0 28 22">
    <g fill="#FF7624" fill-rule="evenodd">
        <path fill-rule="nonzero" d="M24.582 0H3.424C1.535 0 0 1.585 0 3.535v14.93C0 20.415 1.535 22 3.424 22h21.152C26.465 22 28 20.415 28 18.465V3.54C28.006 1.591 26.47 0 24.582 0zm1.86 18.465c0 1.059-.835 1.92-1.86 1.92H3.424c-1.025 0-1.86-.861-1.86-1.92V3.54c0-1.059.835-1.92 1.86-1.92h21.152c1.025 0 1.86.861 1.86 1.92v14.924h.006z"/>
        <path d="M17.731 10.809l6.991-6.385a.828.828 0 0 0 .06-1.15.792.792 0 0 0-1.13-.06l-9.641 8.811-1.881-1.71c-.006-.006-.012-.012-.012-.018a1.19 1.19 0 0 0-.13-.115L4.334 3.208a.788.788 0 0 0-1.13.066.822.822 0 0 0 .065 1.15l7.074 6.439L3.3 17.579a.827.827 0 0 0-.036 1.15.792.792 0 0 0 1.13.042l7.151-6.812 1.94 1.765a.79.79 0 0 0 1.065-.006l1.993-1.82 7.11 6.88a.79.79 0 0 0 1.13-.03.827.827 0 0 0-.03-1.151l-7.021-6.788z"/>
    </g>
</svg>
