<svg xmlns="http://www.w3.org/2000/svg" xmlns:xlink="http://www.w3.org/1999/xlink" width="151" height="55" viewBox="0 0 151 55">
    <defs>
        <linearGradient id="a" x1="50%" x2="50%" y1="1.881%" y2="100%">
            <stop offset="0%" stop-color="#FCB563"/>
            <stop offset="100%" stop-color="#FF8842"/>
        </linearGradient>
        <path id="b" d="M.033.65H38.5V37H.033z"/>
    </defs>
    <g fill="none" fill-rule="evenodd">
        <path fill="#3A89DB" d="M57.667 14.745c0-1.069-.64-1.709-1.726-1.709h-2.407v3.404h2.407c1.086 0 1.726-.624 1.726-1.695m1.962 0c0 2.156-1.353 3.435-3.508 3.435h-2.587v3.167c0 .371-.135.505-.506.505h-.847c-.386 0-.521-.134-.521-.505v-9.544c0-.37.135-.506.521-.506h3.94c2.14 0 3.508 1.294 3.508 3.448M64.584 13.929c.342 0 .462.104.462.46v.654c0 .342-.12.462-.462.462h-.534c-.58 0-1.028.059-1.413.178-.133.03-.149.103-.149.178v5.53c0 .343-.104.462-.446.462h-.817c-.342 0-.46-.12-.46-.462v-6.17c0-.476.103-.653.579-.847.55-.208 1.442-.416 2.764-.445h.476zM69.018 15.49c-1.085 0-1.695.505-1.695 1.411v2.201c0 .892.61 1.411 1.695 1.411 1.1 0 1.71-.519 1.71-1.41V16.9c0-.906-.61-1.412-1.71-1.412m0-1.56c2.229 0 3.434 1.128 3.434 2.972v2.201c0 1.843-1.205 2.973-3.434 2.973-2.2 0-3.42-1.13-3.42-2.973v-2.2c0-1.845 1.22-2.974 3.42-2.974M77.094 15.49c-1.085 0-1.695.505-1.695 1.411v2.201c0 .892.61 1.411 1.695 1.411 1.1 0 1.71-.519 1.71-1.41V16.9c0-.906-.61-1.412-1.71-1.412m0-1.56c2.229 0 3.434 1.128 3.434 2.972v2.201c0 1.843-1.205 2.973-3.434 2.973-2.2 0-3.42-1.13-3.42-2.973v-2.2c0-1.845 1.22-2.974 3.42-2.974M86.523 11.327v.653c0 .358-.119.476-.476.476-1.25 0-1.68.432-1.68 1.546v.15h1.711c.341 0 .445.103.445.446v.682c0 .343-.104.462-.445.462h-1.71v5.648c0 .343-.106.462-.46.462h-.789c-.358 0-.476-.119-.476-.462v-5.648h-.892c-.342 0-.447-.119-.447-.462v-.682c0-.343.105-.447.447-.447h.892v-.149c0-2.052 1.026-3.108 3.271-3.15h.133c.357 0 .476.118.476.475M95.033 13.036h-2.572V16.1h2.572c.994 0 1.56-.536 1.56-1.532 0-.98-.549-1.53-1.56-1.53m3.522 1.53c0 1.546-.729 2.587-1.962 3.004.194.163.342.371.475.64l1.636 3.136c.15.283.12.505-.253.505h-.862c-.639 0-.832-.075-1.01-.447l-1.25-2.526c-.386-.818-.743-1.04-1.769-1.04h-1.099v3.508c0 .371-.135.505-.507.505h-.847c-.386 0-.52-.134-.52-.505v-9.544c0-.37.134-.506.52-.506h4.104c2.066 0 3.344 1.218 3.344 3.27M103.155 15.385c-1.116 0-1.725.55-1.725 1.517v.327h3.434v-.327c0-.966-.58-1.517-1.709-1.517m0-1.456c2.362 0 3.433 1.367 3.433 3.077v.906c0 .388-.148.64-.668.64h-4.49v.55c0 .967.61 1.487 1.695 1.487.878 0 1.441-.298 1.754-.788.238-.327.401-.372.757-.178l.521.282c.343.164.388.417.18.743-.536.878-1.533 1.427-3.212 1.427-2.439 0-3.42-1.353-3.42-3.181V17.14c0-2.067 1.205-3.211 3.45-3.211M110.74 18.686c-1.13 0-1.428.357-1.428.966 0 .61.238.996 1.398.996.76 0 1.218-.06 1.486-.118.12-.045.164-.075.164-.208V18.76c-.31-.014-1.04-.074-1.62-.074m.163-4.757c2.438 0 3.182 1.309 3.182 3.063v3.85c0 .519-.119.668-.535.847-.55.237-1.456.387-2.677.387-2.63 0-3.315-.863-3.315-2.41 0-1.783.996-2.392 3.375-2.392.58 0 1.174.058 1.427.074v-.416c0-.936-.37-1.472-1.487-1.472-.743 0-1.248.238-1.56.713-.209.313-.299.358-.639.224l-.595-.253c-.328-.148-.432-.327-.253-.67.505-.966 1.531-1.545 3.077-1.545M118.877 15.505c-1.174 0-1.711.52-1.711 1.574v1.934c0 .966.58 1.486 1.666 1.486.535 0 .996-.06 1.368-.163.104-.045.118-.074.118-.164v-4.475c-.34-.074-.847-.192-1.441-.192m-.327-1.576c.727 0 1.352.118 1.768.193v-2.81c0-.342.105-.46.448-.46h.816c.342 0 .461.118.461.46v9.47c0 .49-.119.623-.595.818-.594.222-1.427.475-2.779.475-2.216 0-3.227-1.1-3.227-3.003v-2.036c0-2.008 1.04-3.107 3.108-3.107M125.467 14.598v6.793c0 .343-.12.462-.461.462h-.817c-.343 0-.447-.12-.447-.462v-6.793c0-.343.104-.446.447-.446h.817c.342 0 .46.103.46.446m.09-2.438v.133c0 .684-.224.908-.907.908h-.105c-.682 0-.906-.224-.906-.908v-.133c0-.685.224-.892.906-.892h.105c.683 0 .908.207.908.892M130.656 13.929c2.11 0 3.093 1.1 3.093 2.987v4.475c0 .343-.12.462-.462.462h-.818c-.34 0-.446-.12-.446-.462v-4.43c0-.98-.534-1.456-1.62-1.456-.58 0-1.04.088-1.428.193a.155.155 0 0 0-.103.148v5.545c0 .343-.105.462-.446.462h-.818c-.342 0-.46-.12-.46-.462v-6.11c0-.476.104-.654.58-.847.594-.237 1.5-.505 2.928-.505M138.628 15.505c-1.188 0-1.754.505-1.754 1.604v1.577c0 .937.566 1.456 1.62 1.456.64 0 1.16-.118 1.532-.208v-4.088c0-.104-.03-.133-.134-.178a4.887 4.887 0 0 0-1.264-.163m-.118-1.576c1.204 0 2.17.222 2.69.46.476.223.55.343.55.818v6.899c0 1.947-.935 3.24-3.27 3.24-1.606 0-2.557-.55-3.078-1.427-.222-.327-.163-.565.179-.743l.565-.313c.357-.177.52-.133.758.178.313.49.744.759 1.546.759 1.04 0 1.576-.551 1.576-1.607v-.743c-.446.119-1.07.268-1.784.268-2.126 0-3.092-1.114-3.092-2.987v-1.68c0-2.023 1.085-3.122 3.36-3.122"/>
        <path fill="url(#a)" d="M55.66 27.871v1.474c0 .66-.222.88-.903.88h-6.16v2.838h5.06c.682 0 .901.22.901.88v1.475c0 .682-.219.902-.902.902h-5.06v2.992h6.38c.661 0 .903.243.903.903v1.473c0 .683-.242.903-.903.903h-9.065c-.66 0-.902-.22-.902-.903V27.871c0-.683.242-.902.902-.902h8.846c.681 0 .902.22.902.902zm14.43 14.72H67.98c-1.078 0-1.321-.044-1.761-.792l-2.662-4.356-2.51 4.356c-.461.704-.658.792-1.76.792h-1.98c-.637 0-.77-.418-.44-.902l4.6-7.063-4.401-6.8c-.33-.44-.176-.857.418-.857h2.024c1.057 0 1.276.109 1.738.748l2.465 4.07 2.443-4.07c.46-.683.68-.748 1.627-.748h2.113c.594 0 .748.418.418.858l-4.445 6.777 4.664 7.085c.353.462.199.902-.44.902zm10.582-10.342c0-1.254-.748-2.024-2.046-2.024h-2.84v4.004h2.84c1.275 0 2.046-.725 2.046-1.98zm3.719 0c0 3.301-2.07 5.26-5.391 5.26h-3.213v4.18c0 .682-.242.902-.902.902h-1.782c-.66 0-.903-.22-.903-.903V27.871c0-.683.243-.902.903-.902H79c3.278 0 5.39 1.98 5.39 5.28zm12.518-4.378v1.474c0 .66-.22.88-.902.88h-6.16v2.838h5.06c.682 0 .901.22.901.88v1.475c0 .682-.219.902-.902.902h-5.06v2.992h6.38c.661 0 .903.243.903.903v1.473c0 .683-.242.903-.903.903h-9.065c-.66 0-.902-.22-.902-.903V27.871c0-.683.242-.902.902-.902h8.846c.681 0 .902.22.902.902zm8.843 2.354h-3.059v3.609h3.059c1.166 0 1.826-.66 1.826-1.804 0-1.145-.66-1.805-1.826-1.805zm5.545 1.805c0 2.2-.925 3.762-2.553 4.51.176.243.309.506.462.77l2.267 4.335c.286.528.198.946-.462.946h-1.761c-1.122 0-1.518-.176-1.848-.858l-1.629-3.39c-.483-1.011-.901-1.297-2.177-1.297h-.903v4.643c0 .682-.242.902-.902.902h-1.782c-.66 0-.903-.22-.903-.902V27.87c0-.682.243-.902.903-.902h6.095c3.19 0 5.193 1.87 5.193 5.06zm13.244-4.159v1.474c0 .66-.22.88-.902.88h-3.433v11.463c0 .683-.22.903-.902.903h-1.783c-.66 0-.879-.22-.879-.903V30.225h-3.455c-.682 0-.902-.22-.902-.88v-1.474c0-.683.22-.902.902-.902h10.452c.682 0 .902.22.902.902zm7.347-1.232c3.212 0 4.884 1.078 5.896 3.234.308.617.132.924-.484 1.189l-1.672.725c-.572.265-.814.155-1.144-.44-.462-.924-1.21-1.452-2.596-1.452-1.805 0-2.597.463-2.597 1.518 0 1.189 1.519 1.43 3.3 1.628 2.575.309 5.699.969 5.699 4.84 0 3.016-2.486 5.04-6.535 5.04-3.432 0-5.324-1.254-6.182-3.564-.22-.64-.044-.924.572-1.145l1.606-.572c.638-.241.88-.132 1.166.528.44.947 1.43 1.519 2.838 1.519 1.87 0 2.927-.485 2.927-1.738 0-1.101-1.342-1.41-2.971-1.584-2.64-.31-6.094-.748-6.094-4.797 0-2.84 2.156-4.93 6.27-4.93z" transform="translate(6 2)"/>
        <g transform="translate(6 16.017)">
            <mask id="c" fill="#fff">
                <use xlink:href="#b"/>
            </mask>
            <path fill="#FF8842" d="M38.5 29.307h-9.036V37l-8.107-8.106H.033V.65h38.415z" mask="url(#c)"/>
        </g>
        <path fill="#FCB563" d="M6 44.877l29.323-7.915V8.095L6 16.009z"/>
        <path fill="#3A89DB" d="M6.017 44.87L26.01 30.866V2L6.017 16.002z"/>
    </g>
</svg>
