<svg xmlns="http://www.w3.org/2000/svg" width="40" height="40" viewBox="0 0 40 40">
    <defs>
        <linearGradient id="a" x1="50%" x2="50%" y1="1.881%" y2="100%">
            <stop offset="0%" stop-color="#FCB563"/>
            <stop offset="100%" stop-color="#FF8842"/>
        </linearGradient>
    </defs>
    <g fill="none" fill-rule="evenodd">
        <ellipse cx="20.984" cy="19.839" fill="#DD7330" fill-rule="nonzero" rx="19.016" ry="19.839"/>
        <ellipse cx="18.516" cy="19.839" fill="url(#a)" fill-rule="nonzero" rx="18.516" ry="19.839"/>
        <path fill="#FFF" fill-rule="nonzero" d="M18.194 37.71C8.696 37.71 1 29.714 1 19.855 1 9.995 8.696 2 18.194 2c9.497 0 17.193 7.995 17.193 17.855S27.691 37.71 18.194 37.71zm0-.402c9.273 0 16.793-7.812 16.793-17.453 0-9.641-7.52-17.454-16.793-17.454C8.92 2.401 1.4 10.214 1.4 19.855c0 9.64 7.52 17.453 16.794 17.453z"/>
        <path fill="#FFF" d="M9.778 21.029l-.41-.257V14.8h6.673v1.665H11.4v2.659a6.062 6.062 0 0 1 1.459-.176c2.246 0 3.771 1.409 3.771 3.715 0 1.986-1.394 3.54-4 3.54-1.722 0-3.1-.625-4.05-1.81l1.393-1.121c.787.912 1.574 1.233 2.542 1.233 1.23 0 2.05-.769 2.05-1.89 0-1.265-.919-1.97-2.362-1.97-.787 0-1.705.144-2.426.385zm12.536 6.745V26.35c-1.616-.162-3.034-.81-4.073-1.96l1.484-1.135c.726.778 1.584 1.248 2.59 1.377v-3.483c-.034 0-.05 0-.067-.016-2.506-.68-3.496-1.75-3.496-3.419 0-1.765 1.287-2.98 3.562-3.062v-1.425h1.105v1.49a5.425 5.425 0 0 1 3.233 1.734l-1.419 1.069c-.527-.55-1.138-.907-1.814-1.07v3.111c2.54.746 3.678 1.669 3.678 3.516 0 1.928-1.402 3.175-3.678 3.289v1.41h-1.105zm2.77-4.58c0-.815-.382-1.27-1.61-1.711v3.146c.98-.13 1.61-.685 1.61-1.435zm-4.428-5.58c0 .645.34 1.085 1.61 1.51V16.37c-1.09.095-1.61.567-1.61 1.243z"/>
    </g>
</svg>
