<svg xmlns="http://www.w3.org/2000/svg" xmlns:xlink="http://www.w3.org/1999/xlink" width="521" height="496" viewBox="0 0 521 496">
    <defs>
        <path id="a" d="M.673.17H455.42v48.129H.673z"/>
        <linearGradient id="b" x1=".94%" x2="99.06%" y1="50.94%" y2="50.94%">
            <stop offset="0%" stop-color="#FCB563"/>
            <stop offset="72.489%" stop-color="#FCB362"/>
            <stop offset="100%" stop-color="#FF8842"/>
        </linearGradient>
        <linearGradient id="c" x1="10.268%" x2="58.617%" y1="87.903%" y2="22.999%">
            <stop offset="0%" stop-color="#3A89DB"/>
            <stop offset="100%" stop-color="#92C8FF"/>
        </linearGradient>
        <path id="d" d="M50.861 26.262S10.101 24.513 1.813 60.1c-8.29 35.588 13.816 57.757 39.379 64.174l50.43-69.424S132.04 32.68 102.505 4.095c-4.128-2.71-8.366-3.83-12.55-3.832-20.148-.002-39.094 26-39.094 26"/>
        <linearGradient id="e" x1="-.001%" y1="50%" y2="50%">
            <stop offset="0%" stop-color="#542F1C"/>
            <stop offset="100%" stop-color="#87543B"/>
        </linearGradient>
        <path id="g" d="M1.033 6.485c-1.67 26.053 3.84 55.563 24.702 58.154 37.378.431 36.075-36.275 36.944-42.32.87-6.045-3.4-6.833-3.4-6.833s-10.073.355-12.246 7.264c-2.174 6.91-30.425 17.274-36.579 8.638C4.302 22.75 7.714.296 7.714.296c-2.327 3.645-6.68 6.19-6.68 6.19"/>
        <linearGradient id="h" x1="-.001%" y1="49.999%" y2="49.999%">
            <stop offset="0%" stop-color="#542F1C"/>
            <stop offset="100%" stop-color="#87543B"/>
        </linearGradient>
        <linearGradient id="j" x1="44.797%" x2="8.421%" y1="100%" y2="60.062%">
            <stop offset="0%" stop-color="#3A89DB"/>
            <stop offset="100%" stop-color="#92C8FF"/>
        </linearGradient>
    </defs>
    <g fill="none" fill-rule="evenodd">
        <path fill="#EBC1A4" d="M275.961 288.813s-47.976-4.36-34.381-97.46c1.56-.18 3.333-.306 5.277-.306.7 0 3.06.019 6.319.445 2.597.341 6.062.981 10.091 2.266a161.866 161.866 0 0 0 0 23.144c1.292 18.065 2.202 30.78 10.076 42.177 11.117 16.095 33.671 26.015 42.448 19.708 7.543-5.419 6.974-20.48 20.084-18.795 13.11 1.685 24.51 6.592 24.496 12.487-.016 5.895-11.327 8.153-18.604 7.204-7.276-.948-10.708 11.388-17.51 12.479-6.804 1.092-35.213 1.988-48.296-3.349"/>
        <path fill="#FF7624" d="M92.204 433.122c0 2.382 15.86 4.313 35.423 4.313 19.564 0 35.425-1.93 35.425-4.313s-15.861-4.314-35.425-4.314c-19.564 0-35.423 1.931-35.423 4.314"/>
        <path fill="url(#b)" d="M137.138 129.48s31.484-34.422 40.366-55.075c8.88-20.652-5.652-24.297-12.919-13.364-7.264 10.936-20.586 35.638-24.22 6.076-3.631-29.563 1.213-36.041-3.227-39.687-4.44-3.644-10.092-1.214-14.128 12.96-4.037 14.172-18.165 17.007-21.798 3.643C97.579 30.67 88.296 1.107 74.974 2.728c-13.32 1.62.403 23.082 0 35.232-.403 12.148-11.303 10.124-19.779-.81C46.72 26.217 17.655-7.522 4.738 2.666c-12.916 10.187 5.248 23.551 0 36.509C-.51 52.134.298 73.259 24.92 65.125c24.623-8.132 23.009 14.95 24.219 18.999 1.21 4.05 7.267 17.82 22.606 10.934 15.338-6.884 23.814-3.644 18.164 2.026-5.652 5.669-15.743 11.742-10.496 14.982 5.248 3.24 25.431-7.289 33.907-1.62 8.477 5.67 11.706 19.033 11.706 19.033h12.11z" transform="translate(0 304.114)"/>
        <path fill="#FFF" d="M16.04 336.404c5.5 4.07 11.053 8.054 16.777 11.773 5.693 3.757 11.489 7.354 17.468 10.566 1.491.814 3 1.587 4.524 2.32a58.154 58.154 0 0 0 4.591 2.082c3.12 1.263 6.338 2.355 9.571 3.411 6.47 2.119 13.011 4.115 19.51 6.303 6.481 2.24 12.95 4.617 19.17 7.666 3.1 1.537 6.142 3.231 9.018 5.225 2.87 1.99 5.584 4.31 7.762 7.152 1.118 1.394 1.99 2.99 2.734 4.631.292.856.637 1.7.828 2.586.175.887.373 1.793.444 2.63.412 3.414.761 6.834 1.037 10.26.239 3.428.41 6.864.457 10.299.044 3.433-.005 6.882-.464 10.285.231-6.85-.445-13.677-1.296-20.452a287.455 287.455 0 0 0-1.47-10.143c-.11-.868-.331-1.625-.502-2.416-.192-.783-.53-1.525-.804-2.279-.72-1.448-1.537-2.857-2.604-4.105-4.218-5.05-10.192-8.5-16.24-11.385-6.093-2.902-12.485-5.235-18.93-7.414-6.433-2.222-12.962-4.223-19.452-6.441-3.239-1.124-6.477-2.288-9.666-3.65-1.588-.68-3.196-1.422-4.7-2.244a100.709 100.709 0 0 1-4.525-2.497c-11.916-6.904-22.892-15.206-33.238-24.163"/>
        <path fill="#FF7624" d="M77.54 474.322c0 4.563 98.932 8.263 220.973 8.263 122.04 0 220.981-3.7 220.981-8.263 0-4.566-98.94-8.265-220.981-8.265-122.04 0-220.973 3.7-220.973 8.265"/>
        <path fill="#332777" d="M185.685 471.31h23.534l20.123-38.848h-21.829zM374.165 471.31h-23.536l-23.45-45.274 20.28-2.255z"/>
        <path fill="#425597" d="M232.62 324.21c8.734 4.931 21.916 11.262 38.76 15.122 56.151 12.867 88.155-16.576 115.927 3.242 19.99 14.263 21.305 42.287 21.534 47.168 1.712 36.464-26.704 59.567-29.887 62.068 0 0 14.986 7.226 28.671 4.336 6.034-5.722 14.427-15.002 21.083-28.267 13.96-27.826 17.828-68.326-.666-96.649-38.164-58.442-147.149-27.642-152.354-26.103-18.44 5.453-32.96 12.967-43.068 19.084"/>
        <path fill="#1D184C" d="M391.386 468.882s34.237 5.39 51.31 2.26c0 0 22.2-4.315-34.331-16.487 0 0-8.424.905-21.69-2.699l4.71 16.926z"/>
        <path fill="#242166" d="M369.097 471.142s38.406 6.048 57.558 2.536c0 0 24.905-4.842-38.51-18.496 0 0-9.45 1.016-24.335-3.028l5.287 18.988z"/>
        <path fill="#5167B0" d="M227.494 333.289c8.136 4.594 20.415 10.49 36.108 14.087 52.304 11.986 82.118-15.44 107.989 3.019 18.62 13.286 19.847 39.392 20.06 43.938 1.594 33.97-24.877 55.49-27.84 57.821 0 0 13.958 6.731 26.707 4.038 5.62-5.33 13.44-13.974 19.64-26.332 13.003-25.92 16.609-63.647-.62-90.03-35.552-54.443-137.077-25.75-141.924-24.318-17.18 5.08-30.706 12.08-40.12 17.777"/>
        <path fill="url(#c)" d="M277.152 182.878l104.84-11.29 34.101-105.31h-9.934l-30.325 94.725-98.682 11.425z" transform="translate(0 119)"/>
        <path fill="#E9C5AC" d="M234.73 148.125s-4.134-8.106 0-27.898c0 0-8.631.982-19.43-1.05 0 0 .83 20.654-4.337 25.838 0 0 7.234 31.62 23.767 29.026 7.751-3.628 0-25.916 0-25.916"/>
        <g transform="translate(177)">
            <mask id="f" fill="#fff">
                <use xlink:href="#d"/>
            </mask>
            <path fill="url(#e)" d="M50.861 26.262S10.101 24.513 1.813 60.1c-8.29 35.588 13.816 57.757 39.379 64.174l50.43-69.424S132.04 32.68 102.505 4.095c-4.128-2.71-8.366-3.83-12.55-3.832-20.148-.002-39.094 26-39.094 26" mask="url(#f)"/>
        </g>
        <g>
            <path fill="#F7D1B7" d="M269.537 52.849s15.289 33.432 9.73 58.068c-5.56 24.634-43.091 28.74-43.091 28.74-.046 2.994-.479 4.606-1.302 4.839-1.712.484-5.108-5.023-10.185-16.52l-5.887-5.329s-23.628-13.49-11.813-30.5c9.034-11.144 14.594 0 14.594 0s25.715-10.557 23.629-46.924c0 0 15.984 8.798 24.325 7.626"/>
            <path fill="#542F1D" d="M260.308 74.954c1.853 1.695 3.381 2.92 5.151 3.563.884.304 1.802.58 2.843.69.516.103 1.06.102 1.625.187.57.048 1.148.051 1.8.18-.456.439-.975.791-1.52 1.117-.573.226-1.152.543-1.79.64-1.258.3-2.654.173-3.926-.294-1.285-.473-2.382-1.38-3.118-2.456-.72-1.085-1.163-2.339-1.065-3.627"/>
            <path fill="#F7D1B7" d="M276.872 80.302s3.513 7.33 8.197 10.265c4.686 2.932.293 9.383-2.927 8.797l-3.22-.587-2.05-18.475z"/>
        </g>
        <g transform="translate(220 86)">
            <mask id="i" fill="#fff">
                <use xlink:href="#g"/>
            </mask>
            <path fill="url(#h)" d="M1.033 6.485c-1.67 26.053 3.84 55.563 24.702 58.154 37.378.431 36.075-36.275 36.944-42.32.87-6.045-3.4-6.833-3.4-6.833s-10.073.355-12.246 7.264c-2.174 6.91-30.425 17.274-36.579 8.638C4.302 22.75 7.714.296 7.714.296c-2.327 3.645-6.68 6.19-6.68 6.19" mask="url(#i)"/>
        </g>
        <g>
            <path fill="#FFF" d="M212.252 144.375c-11.203 10.924-27.73 30.685-34.787 59.521-11.729 47.915 8.521 97.023 40.919 126.093 18.824 16.89 38.809 24.38 50.954 27.858.702-12.872 4.534-21.844 7.582-27.298 4.56-8.163 9.684-13.394 13.045-16.671a82.263 82.263 0 0 1 22.244-15.44c-43.333-9.969-54.27-20.197-54.906-28.329-.324-4.126 2.583-6.086 4.967-16.095a128.9 128.9 0 0 0 3.5-30.873c.142-7.019.524-49.398-22.968-60.865a27.417 27.417 0 0 0-5.489-1.98c-2.633-.066-9.038-.586-15.473-4.956-5.589-3.795-8.399-8.595-9.588-10.965"/>
            <path fill="#F7D1B7" d="M265.918 317.67s-43.41 16.49-59.975-88.72c0 0 14.786-10.921 37.346-6.923.19 9.26.77 22.401 2.524 38.147 2.767 24.84 5.47 29.33 9.031 32.222 9.05 7.35 25.82 6.121 35.79-1.678 12.4-9.703 7.197-23.464 19.01-30.162 9.873-5.599 24.027-1.974 25.305 2.514 1.792 6.29-7.439 13.679-14.111 15.874-6.671 2.196-5.906 16.855-11.539 21.015-5.631 4.16-30.273 17.631-43.38 17.71"/>
            <path fill="url(#j)" d="M3.766 117.003S-15.177 28.86 40.688 16.838c55.864-12.023 60.101 99.319 60.101 99.319s-16.514 119.453 138.244 80.02c0 0 39.966-11.139 48.02 23.217 8.057 34.354-10.739 53.215-34.235 59.278-23.495 6.063-128.216 14.82-155.74 8.757 0 0-51.02-2.021-93.312-170.426" transform="translate(104 144)"/>
        </g>
    </g>
</svg>
