<svg xmlns="http://www.w3.org/2000/svg" width="229" height="23" viewBox="0 0 229 23">
    <g fill="none" fill-rule="evenodd">
        <g fill="#006EB8" fill-rule="nonzero">
            <path d="M10.59 1.05c1.652 0 3.217.395 4.61 1.096.219.106.437.224.656.352l-.968.89-1.455-1.544-2.456 2.248-1.46-1.634-4.573 4.233 2.933 3.318-1.153 1.04 2.889 3.323-1.146 1.038 4.128 4.716 2.45-2.316 2.118 2.482c-.42.336-.88.653-1.386.945a10.236 10.236 0 0 1-5.186 1.41C4.796 22.647.07 17.797.07 11.85S4.796 1.05 10.59 1.05z"/>
            <path d="M8.673 11.166l2.502-2.312 2.253 2.568-2.502 2.312zM10.453 15.604l2.502-2.313 2.252 2.568-2.502 2.313zM6.883 6.781L9.385 4.47l2.252 2.568-2.501 2.312zM11.474 5.537l1.876-1.734 1.69 1.926-1.877 1.734zM14.808 13.48l1.876-1.735 1.69 1.926-1.877 1.734zM16.458 17.369l1.876-1.734 1.69 1.926-1.877 1.734zM17.214 8.453l1.251-1.156 1.127 1.284-1.251 1.156zM15.616 4.639l1.25-1.156 1.127 1.284-1.251 1.156zM18.813 12.268l1.251-1.156 1.126 1.284-1.25 1.156zM13.204 9.41l1.876-1.735 1.689 1.926-1.876 1.735zM50.09 7.7l-.059.041-.058-.04c-.432-.403-.903-.564-1.49-.564-1.354 0-2.237.967-2.237 2.476v7.065H47.6V9.613c0-1.007.667-1.087.883-1.087.157 0 .393.04.588.201.197.202.294.483.294.886v7.065h1.354V9.613c0-1.007.667-1.087.882-1.087.157 0 .392.04.588.201.196.202.294.483.294.886v7.065h1.353V9.613c0-.785-.235-1.43-.666-1.872-.393-.382-.942-.604-1.57-.604-.607 0-1.097.182-1.51.564zM59.954 10.398c-.45-.483-1.196-.906-2.216-.906-.98 0-1.726.423-2.176.906-.706.785-.844 1.892-.844 2.758 0 .846.138 1.953.844 2.738.45.482 1.196.905 2.176.905 1.02 0 1.765-.423 2.216-.905.706-.785.843-1.892.843-2.738 0-.866-.137-1.973-.843-2.758zm-.53 3.06c0 .664 0 1.409-.49 1.953-.196.2-.568.463-1.196.463-.589 0-.961-.262-1.157-.463-.49-.544-.49-1.29-.49-1.953v-.624c0-.664 0-1.41.49-1.932.196-.222.568-.484 1.157-.484.628 0 1 .262 1.196.484.49.523.49 1.268.49 1.932v.624zM61.915 9.613l1.138.02v.624c.333-.241.627-.423.96-.543.413-.182.706-.222 1.118-.222.589 0 1.196.121 1.687.685.47.563.568 1.228.568 1.791v4.69h-1.255v-4.79c0-1.148-.705-1.45-1.294-1.45-.588 0-1.196.262-1.686.725v5.515h-1.236V9.613zM73.524 15.29a5.21 5.21 0 0 1-.803.322 3.157 3.157 0 0 1-1.06.18c-.647 0-1.235-.22-1.55-.583-.234-.241-.49-.724-.49-1.57v-.18h4.236v-.323c0-1.127-.039-2.053-.725-2.798-.451-.503-1.138-.845-2.001-.845-.96 0-1.666.422-2.098.926-.706.825-.785 1.912-.785 2.616 0 .785.119 1.953.824 2.759.451.543 1.255 1.006 2.393 1.006.51 0 1.059-.06 1.608-.282.294-.121.627-.282.843-.403l-.392-.825zm-3.902-2.919c0-.805.255-1.268.452-1.49.195-.221.509-.463 1.039-.463.353 0 .705.08.961.343.45.443.45.986.45 1.47v.3h-2.901v-.16zM80.643 9.633l-2.687 8.294c-.098.362-.353.966-.647 1.308-.353.403-.823.584-1.353.584-.373 0-.725-.081-1.079-.282-.215-.141-.431-.282-.569-.443l.589-.765c.098.101.235.202.353.282.196.121.432.181.647.181.373 0 .608-.2.726-.362.137-.181.274-.604.373-.865l.156-.564-2.882-7.367h1.352l1.726 4.408c.177.422.354 1.067.393 1.248h.058c.216-.846.315-1.128.491-1.65l1.235-4.006h1.118zM27.871 16.256l.04-.06.058.06c.451.382.902.563 1.51.563 1.353 0 2.236-.987 2.236-2.476V7.278h-1.373v7.065c0 1.006-.667 1.068-.863 1.068-.176 0-.411-.02-.588-.202-.196-.181-.294-.483-.294-.865V7.278h-1.373v7.066c0 1.006-.667 1.067-.882 1.067-.157 0-.393-.02-.57-.202-.196-.18-.293-.483-.293-.865V7.279h-1.373v7.065c0 .765.235 1.41.667 1.852.392.403.96.624 1.569.624.608 0 1.098-.202 1.53-.564zM38.01 15.29c-.215.1-.47.221-.784.322a3.154 3.154 0 0 1-1.06.18c-.647 0-1.235-.22-1.55-.583-.215-.241-.47-.724-.47-1.57v-.18h4.197v-.323c0-1.127-.04-2.053-.706-2.798-.45-.483-1.137-.825-2.02-.825a2.74 2.74 0 0 0-2.059.906c-.726.845-.784 1.932-.784 2.616 0 .785.098 1.953.804 2.759.47.523 1.255 1.006 2.392 1.006.51 0 1.04-.081 1.608-.302.294-.101.608-.282.824-.403l-.392-.805zm-3.863-2.919c0-.805.235-1.248.45-1.49.177-.2.49-.463 1.02-.463.354 0 .706.101.962.363.45.422.45.966.45 1.469v.282h-2.882v-.16zM44.168 10.217a2.838 2.838 0 0 0-1.883-.705c-.314 0-.647.06-.883.101-.195.06-.45.161-.666.242V7.097H39.5v8.957c.726.443 1.589.745 2.57.745.724 0 1.706-.16 2.411-1.107.569-.785.687-1.771.687-2.577 0-.765-.059-2.072-1-2.898zm-2.119.201c.491 0 1.001.161 1.315.504.431.483.431 1.207.431 1.831v.604c0 1.188-.196 1.671-.372 1.933-.197.262-.608.584-1.314.584-.256 0-.57-.081-.805-.141a3.717 3.717 0 0 1-.568-.283v-4.61l1.313-.422z"/>
        </g>
        <path fill="#F7A826" fill-rule="nonzero" d="M147.275 22.59l.585-.016.576-.041.566-.073.561-.099.547-.125.538-.153.527-.179.516-.202.504-.228.49-.248.473-.274.462-.293.443-.316.428-.335.413-.355.393-.377.379-.392.355-.411.336-.427.317-.442.294-.46.275-.473.248-.487.23-.503.202-.514.18-.526.153-.537.126-.544.099-.56.072-.564.043-.575.015-.582-.015-.58-.043-.57-.072-.564-.1-.553-.125-.544-.153-.533-.18-.526-.202-.51-.23-.5-.248-.487-.275-.468-.294-.46-.317-.443-.336-.422-.355-.412-.379-.392-.393-.373-.413-.354-.428-.335-.443-.317-.462-.293-.474-.27-.489-.248-.504-.228-.516-.202-.527-.18-.538-.152-.547-.125-.561-.1-.566-.072-.576-.041-.585-.016-.58.016-.577.041-.566.073-.558.099-.546.125-.539.153-.523.179-.515.202-.501.228-.485.248-.474.27-.458.293-.443.317-.428.335-.409.354-.393.373-.375.392-.355.412-.336.422-.313.442-.295.461-.27.468-.253.488-.225.499-.203.51-.176.526-.152.533-.126.544-.1.553-.072.563-.042.572-.016.579.016.582.042.575.072.564.1.56.126.544.152.537.176.526.203.514.225.503.252.487.271.473.295.46.313.442.336.427.355.411.375.392.393.377.409.355.428.335.443.316.458.293.474.274.485.248.5.228.516.202.523.18.54.152.545.125.558.1.566.072.576.041z"/>
        <path fill="#ED1C2E" fill-rule="nonzero" d="M132.124 22.59l.581-.016.577-.041.565-.073.558-.099.546-.125.539-.153.523-.179.516-.202.5-.228.486-.248.473-.274.459-.293.443-.316.428-.335.408-.355.394-.377.375-.392.355-.411.336-.427.313-.442.294-.46.271-.473.253-.487.225-.503.203-.514.175-.526.153-.537.126-.544.1-.56.072-.564.042-.575.015-.582-.015-.58-.042-.57-.073-.564-.099-.553-.126-.544-.153-.533-.175-.526-.203-.51-.225-.5-.253-.487-.27-.468-.295-.46-.313-.443-.336-.422-.355-.412-.375-.392-.394-.373-.408-.354-.428-.335-.443-.317-.459-.293-.473-.27-.486-.248-.5-.228-.516-.202-.523-.18-.539-.152-.546-.125-.558-.1-.565-.072-.577-.041-.58-.016-.585.016-.577.041-.565.073-.562.099-.546.125-.539.153-.527.179-.516.202-.504.228-.489.248-.473.27-.463.293-.443.317-.428.335-.412.354-.394.373-.378.392-.355.412-.336.422-.317.442-.295.461-.275.468-.248.488-.23.499-.201.51-.18.526-.153.533-.126.544-.1.553-.072.563-.042.572-.015.579.015.582.042.575.073.564.099.56.126.544.153.537.18.526.202.514.229.503.248.487.275.473.295.46.317.442.336.427.355.411.378.392.394.377.412.355.428.335.443.316.463.293.473.274.49.248.503.228.516.202.527.18.539.152.546.125.562.1.565.072.577.041z"/>
        <path fill="#F7A826" fill-rule="nonzero" d="M138.374 4.34h6.017v-.614h-5.497zM137.473 5.703h6.918V5.09h-6.556zM136.8 7.063h7.59v-.614h-7.322zM136.338 8.426h8.053v-.613h-7.862zM136.606 15.015h7.804v-.613h-7.995zM137.182 16.378h7.228v-.613h-7.514zM137.992 17.738h6.418v-.613h-6.804zM139.108 19.101h5.302v-.617h-5.841zM136.067 9.786h8.324v-.614h-8.206zM141.14 13.655h3.175v-.613h-3.06zM141.392 12.295h2.923v-.617h-2.808zM135.857 11.678h.825v.617h-.787z"/>
        <path fill="#FFF" fill-rule="nonzero" d="M134.317 10.936l-.053-.004-.054-.008-.05-.007-.049-.008-.046-.007-.05-.008-.05-.008-.053-.007-.053-.008-.061-.004-.069-.003-.073-.004h-.08l-.088.004-.099.007-.11.008-.077.011-.073.012-.065.022-.057.023-.053.027-.05.03-.038.038-.035.035-.023.042-.019.041-.007.046v.046l.011.05.015.049.031.05.038.049.077.072.091.057.107.05.115.042.122.038.126.042.126.046.122.05.115.064.107.08.095.095.08.118.062.145.038.171.015.206-.015.24-.027.179-.046.156-.06.145-.077.125-.088.11-.1.096-.106.084-.119.072-.122.057-.126.05-.13.038-.134.03-.13.023-.126.012-.126.007-.118.004h-.164l-.153-.004h-.134l-.126-.004-.114-.003-.103-.008-.092-.008-.088-.011-.08-.008-.073-.015-.072-.011-.066-.02-.064-.015-.062-.022-.06-.023-.066-.023.172-.842.035.008.042.011.053.015.065.016.069.015.076.015.084.019.092.015.096.016.099.015.103.011.107.012.11.004.111.003h.111l.111-.003.111-.023.088-.03.068-.043.054-.053.038-.053.03-.061.02-.061.015-.057.008-.11-.035-.096-.064-.076-.096-.065-.115-.057-.133-.057-.15-.054-.149-.06-.152-.069-.145-.08-.134-.1-.122-.117-.096-.145-.069-.171-.034-.206.004-.244.019-.148.027-.141.038-.13.046-.121.06-.115.07-.099.08-.095.095-.084.111-.072.122-.06.138-.058.153-.042.172-.034.187-.027.206-.015.226-.004h.14l.13.004.12.004.106.004.096.007.088.008.076.007.069.008.065.008.053.01.05.009.046.007.038.008.034.004.034.007.031.004z"/>
        <path stroke="#FFF" stroke-width=".216" d="M134.317 10.936l-.053-.004-.054-.008-.05-.007-.049-.008-.046-.007-.05-.008-.05-.008-.053-.007-.053-.008-.061-.004-.069-.003-.073-.004h-.08l-.088.004-.099.007-.11.008-.077.011-.073.012-.065.022-.057.023-.053.027-.05.03-.038.038-.035.035-.023.042-.019.041-.007.046v.046l.011.05.015.049.031.05.038.049.077.072.091.057.107.05.115.042.122.038.126.042.126.046.122.05.115.064.107.08.095.095.08.118.062.145.038.171.015.206-.015.24-.027.179-.046.156-.06.145-.077.125-.088.11-.1.096-.106.084-.119.072-.122.057-.126.05-.13.038-.134.03-.13.023-.126.012-.126.007-.118.004h-.164l-.153-.004h-.134l-.126-.004-.114-.003-.103-.008-.092-.008-.088-.011-.08-.008-.073-.015-.072-.011-.066-.02-.064-.015-.062-.022-.06-.023-.066-.023.172-.842.035.008.042.011.053.015.065.016.069.015.076.015.084.019.092.015.096.016.099.015.103.011.107.012.11.004.111.003h.111l.111-.003.111-.023.088-.03.068-.043.054-.053.038-.053.03-.061.02-.061.015-.057.008-.11-.035-.096-.064-.076-.096-.065-.115-.057-.133-.057-.15-.054-.149-.06-.152-.069-.145-.08-.134-.1-.122-.117-.096-.145-.069-.171-.034-.206.004-.244.019-.148.027-.141.038-.13.046-.121.06-.115.07-.099.08-.095.095-.084.111-.072.122-.06.138-.058.153-.042.172-.034.187-.027.206-.015.226-.004h.14l.13.004.12.004.106.004.096.007.088.008.076.007.069.008.065.008.053.01.05.009.046.007.038.008.034.004.034.007.031.004-.195.86"/>
        <path fill="#FFF" fill-rule="nonzero" d="M135.223 9.134h1.058l-.157.922h.638l-.137.86-.673-.018-.366 2.125-.004.076.019.065.038.05.05.041.068.027.077.023.084.015.092.007.084-.003.076-.008.069-.011.06-.016.05-.015.035-.011.023-.008.008-.004-.134.709-.027.019-.027.015-.026.015-.027.016-.027.011-.03.011-.035.012-.034.011-.038.012-.039.007-.045.008-.046.007-.05.008-.057.008-.061.007-.065.008h-.29l-.154-.012-.133-.015-.123-.023-.103-.026-.087-.034-.073-.039-.065-.045-.05-.05-.038-.053-.027-.065-.019-.065-.011-.072-.004-.08v-.084l.011-.087.012-.096z"/>
        <path stroke="#FFF" stroke-width=".216" d="M135.223 9.134h1.058l-.157.922h.638l-.137.86-.673-.018-.366 2.125-.004.076.019.065.038.05.05.041.068.027.077.023.084.015.092.007.084-.003.076-.008.069-.011.06-.016.05-.015.035-.011.023-.008.008-.004-.134.709-.027.019-.027.015-.026.015-.027.016-.027.011-.03.011-.035.012-.034.011-.038.012-.039.007-.045.008-.046.007-.05.008-.057.008-.061.007-.065.008h-.29l-.154-.012-.133-.015-.123-.023-.103-.026-.087-.034-.073-.039-.065-.045-.05-.05-.038-.053-.027-.065-.019-.065-.011-.072-.004-.08v-.084l.011-.087.012-.096.73-4.155"/>
        <path fill="#FFF" fill-rule="nonzero" d="M137.606 12.353l-.011.064-.004.069.008.072.015.072.027.073.03.069.042.072.046.065.054.064.057.057.061.058.069.045.069.042.076.034.076.027.077.015.1.016.095.01.099.012.1.008.099.004h.103l.1-.004.102-.008.104-.015.103-.019.106-.023.104-.034.106-.042.111-.046.107-.06.111-.065-.153.937-.06.03-.062.03-.061.023-.057.023-.058.02-.06.018-.062.016-.065.011-.069.011-.076.008-.08.008-.088.007-.1.004h-.103l-.118.004h-.126l-.187-.004-.191-.019-.191-.027-.191-.045-.187-.058-.18-.072-.172-.095-.16-.11-.15-.13-.13-.156-.11-.175-.092-.202-.065-.225-.042-.255-.011-.282.02-.312.014-.122.023-.14.03-.15.043-.16.057-.163.069-.164.088-.167.107-.16.122-.153.149-.144.168-.13.191-.114.221-.095.249-.07.275-.045.31-.015.148.004.157.015.156.027.157.038.153.057.15.069.137.09.126.108.114.13.096.151.076.176.054.201.03.229.004.259-.027.29-.057.32-.02.232h-2.784l.176-.75h1.673l.008-.096-.004-.091-.008-.084-.015-.076-.027-.073-.027-.064-.038-.058-.038-.053-.046-.045-.05-.039-.057-.034-.057-.03-.061-.023-.061-.015-.065-.012-.07-.008-.072.004-.068.012-.066.015-.064.023-.065.03-.058.035-.057.042-.05.045-.05.053-.045.058-.042.06-.034.065-.035.069-.027.076-.022.076-.016.08z"/>
        <path stroke="#FFF" stroke-width=".216" d="M137.606 12.353l-.011.064-.004.069.008.072.015.072.027.073.03.069.042.072.046.065.054.064.057.057.061.058.069.045.069.042.076.034.076.027.077.015.1.016.095.01.099.012.1.008.099.004h.103l.1-.004.102-.008.104-.015.103-.019.106-.023.104-.034.106-.042.111-.046.107-.06.111-.065-.153.937-.06.03-.062.03-.061.023-.057.023-.058.02-.06.018-.062.016-.065.011-.069.011-.076.008-.08.008-.088.007-.1.004h-.103l-.118.004h-.126l-.187-.004-.191-.019-.191-.027-.191-.045-.187-.058-.18-.072-.172-.095-.16-.11-.15-.13-.13-.156-.11-.175-.092-.202-.065-.225-.042-.255-.011-.282.02-.312.014-.122.023-.14.03-.15.043-.16.057-.163.069-.164.088-.167.107-.16.122-.153.149-.144.168-.13.191-.114.221-.095.249-.07.275-.045.31-.015.148.004.157.015.156.027.157.038.153.057.15.069.137.09.126.108.114.13.096.151.076.176.054.201.03.229.004.259-.027.29-.057.32-.02.232h-2.784l.176-.75h1.673l.008-.096-.004-.091-.008-.084-.015-.076-.027-.073-.027-.064-.038-.058-.038-.053-.046-.045-.05-.039-.057-.034-.057-.03-.061-.023-.061-.015-.065-.012-.07-.008-.072.004-.068.012-.066.015-.064.023-.065.03-.058.035-.057.042-.05.045-.05.053-.045.058-.042.06-.034.065-.035.069-.027.076-.022.076-.016.08-.153.789"/>
        <path fill="#FFF" fill-rule="nonzero" d="M146.717 10.285l-.05-.027-.049-.023-.053-.027-.058-.026-.057-.023-.065-.023-.065-.023-.069-.023-.072-.019-.073-.015-.08-.015-.08-.012-.088-.007-.088-.008H145.487l-.1.008-.102.011-.107.02-.107.03-.107.042-.107.053-.107.068-.103.084-.1.1-.095.121-.092.141-.084.168-.08.19-.072.213-.062.244-.023.137-.015.133-.008.134.004.13.012.129.027.122.034.114.042.114.057.103.069.099.08.088.092.08.103.068.118.057.13.05.146.034.05.011.056.012.07.008.076.007.084.008h.183l.096-.008.099-.011.1-.02.095-.026.095-.03.096-.042.088-.05.08-.06.076-.07-.172 1.017-.023.02-.023.022-.03.027-.034.023-.043.03-.053.027-.061.027-.069.022-.088.027-.1.02-.114.014-.133.016-.15.007-.171.004-.195-.004-.214-.011-.176-.02-.176-.037-.175-.057-.176-.076-.168-.092-.16-.114-.153-.133-.142-.153-.126-.171-.107-.19-.091-.214-.069-.232-.046-.255-.015-.27.007-.298.043-.316.03-.156.034-.152.039-.149.038-.14.042-.134.05-.134.05-.125.053-.118.057-.118.057-.11.065-.107.069-.1.069-.095.076-.091.076-.084.08-.08.089-.076.088-.072.091-.065.096-.06.103-.058.103-.05.107-.045.11-.042.12-.038.117-.03.123-.027.13-.023.13-.02.137-.015.138-.007.145-.004.122.004.118.007.115.012.115.015.107.015.103.023.1.02.09.022.089.023.076.023.073.023.06.022.054.02.046.015.034.015.023.008z"/>
        <path stroke="#FFF" stroke-width=".216" d="M146.717 10.285l-.05-.027-.049-.023-.053-.027-.058-.026-.057-.023-.065-.023-.065-.023-.069-.023-.072-.019-.073-.015-.08-.015-.08-.012-.088-.007-.088-.008H145.487l-.1.008-.102.011-.107.02-.107.03-.107.042-.107.053-.107.068-.103.084-.1.1-.095.121-.092.141-.084.168-.08.19-.072.213-.062.244-.023.137-.015.133-.008.134.004.13.012.129.027.122.034.114.042.114.057.103.069.099.08.088.092.08.103.068.118.057.13.05.146.034.05.011.056.012.07.008.076.007.084.008h.183l.096-.008.099-.011.1-.02.095-.026.095-.03.096-.042.088-.05.08-.06.076-.07-.172 1.017-.023.02-.023.022-.03.027-.034.023-.043.03-.053.027-.061.027-.069.022-.088.027-.1.02-.114.014-.133.016-.15.007-.171.004-.195-.004-.214-.011-.176-.02-.176-.037-.175-.057-.176-.076-.168-.092-.16-.114-.153-.133-.142-.153-.126-.171-.107-.19-.091-.214-.069-.232-.046-.255-.015-.27.007-.298.043-.316.03-.156.034-.152.039-.149.038-.14.042-.134.05-.134.05-.125.053-.118.057-.118.057-.11.065-.107.069-.1.069-.095.076-.091.076-.084.08-.08.089-.076.088-.072.091-.065.096-.06.103-.058.103-.05.107-.045.11-.042.12-.038.117-.03.123-.027.13-.023.13-.02.137-.015.138-.007.145-.004.122.004.118.007.115.012.115.015.107.015.103.023.1.02.09.022.089.023.076.023.073.023.06.022.054.02.046.015.034.015.023.008-.19 1.055"/>
        <path fill="#FFF" fill-rule="nonzero" d="M156.122 14.135h-1.058l.077-.423v-.038l-.062.076-.064.069-.065.06-.069.054-.069.05-.069.042-.068.034-.073.034-.072.027-.073.019-.073.019-.076.011-.077.012-.072.007-.077.004h-.076l-.199-.015-.183-.042-.168-.065-.153-.088-.137-.11-.123-.13-.107-.14-.091-.16-.077-.172-.06-.178-.043-.187-.03-.194-.012-.195.004-.198.02-.194.034-.194.057-.225.069-.213.08-.194.095-.183.1-.172.114-.152.119-.137.126-.126.133-.11.142-.095.145-.084.145-.065.153-.053.153-.034.153-.023.156-.008.11.004.108.011.1.02.09.026.089.03.076.035.077.042.068.041.061.046.058.05.05.05.045.049.038.05.035.049.03.045.023.046.268-1.497h1.039z"/>
        <path stroke="#FFF" stroke-width=".216" d="M156.122 14.135h-1.058l.077-.423v-.038l-.062.076-.064.069-.065.06-.069.054-.069.05-.069.042-.068.034-.073.034-.072.027-.073.019-.073.019-.076.011-.077.012-.072.007-.077.004h-.076l-.199-.015-.183-.042-.168-.065-.153-.088-.137-.11-.123-.13-.107-.14-.091-.16-.077-.172-.06-.178-.043-.187-.03-.194-.012-.195.004-.198.02-.194.034-.194.057-.225.069-.213.08-.194.095-.183.1-.172.114-.152.119-.137.126-.126.133-.11.142-.095.145-.084.145-.065.153-.053.153-.034.153-.023.156-.008.11.004.108.011.1.02.09.026.089.03.076.035.077.042.068.041.061.046.058.05.05.05.045.049.038.05.035.049.03.045.023.046.268-1.497h1.039l-.864 4.982"/>
        <path fill="#FCB331" fill-rule="nonzero" d="M154.392 13.213l.107-.007.1-.023.09-.027.089-.042.08-.046.076-.057.073-.064.065-.069.057-.076.054-.084.05-.088.041-.09.039-.096.03-.099.027-.103.019-.103.02-.106.01-.11v-.104l-.003-.106-.012-.1-.015-.095-.027-.09-.03-.088-.039-.077-.045-.072-.05-.061-.057-.053-.065-.046-.07-.03-.072-.02-.08-.007-.103.008-.095.015-.088.03-.088.038-.077.05-.076.06-.065.065-.065.073-.057.083-.054.088-.05.092-.041.099-.039.102-.03.103-.03.11-.024.111-.019.168.008.183.027.186.05.18.076.155.1.126.125.084z"/>
        <path fill="#FFF" fill-rule="nonzero" d="M130.932 13.29l-.152.845h-.963l.027-.156.02-.141.014-.107.015-.057-.053.061-.061.06-.073.058-.08.053-.092.054-.095.045-.1.046-.103.038-.11.034-.111.027-.11.023-.115.015-.111.008-.11.004-.108-.012-.103-.015-.134-.034-.122-.038-.107-.05-.095-.057-.084-.06-.077-.07-.061-.072-.054-.076-.045-.08-.038-.084-.031-.084-.023-.083-.015-.088-.012-.088-.007-.083v-.084l.01-.149.024-.14.038-.134.05-.13.06-.121.07-.11.08-.107.092-.096.095-.087.107-.08.11-.072.115-.061.123-.054.126-.042.13-.034.133-.023h.008l.02-.004.026-.003.042-.004.046-.008.053-.004.057-.007.065-.008.065-.007.065-.008.07-.004.06-.007.061-.004.057-.004.054-.004h.13l.092.004.084.004h.084l.069.004.053.003.038.004h.012l.007-.027.023-.068.02-.08.007-.072-.015-.084-.035-.076-.045-.069-.062-.057-.072-.05-.08-.034-.092-.023-.1-.007-.106-.004-.115-.004h-.118l-.123.004-.126.008-.122.01-.122.012-.119.016-.114.015-.111.019-.1.019-.091.019-.084.023-.069.023-.053.026-.042.023.271-.918.084-.034.084-.03.091-.027.092-.02.092-.018.1-.015.099-.016.103-.007.107-.008.11-.004.115-.004h.367l.133.004.134.004.107.008.115.019.118.026.122.035.119.045.114.054.115.064.107.073.095.084.085.091.076.103.057.114.038.122.023.13v.144l-.023.153z"/>
        <path stroke="#FFF" stroke-width=".216" d="M130.932 13.29l-.152.845h-.963l.027-.156.02-.141.014-.107.015-.057-.053.061-.061.06-.073.058-.08.053-.092.054-.095.045-.1.046-.103.038-.11.034-.111.027-.11.023-.115.015-.111.008-.11.004-.108-.012-.103-.015-.134-.034-.122-.038-.107-.05-.095-.057-.084-.06-.077-.07-.061-.072-.054-.076-.045-.08-.038-.084-.031-.084-.023-.083-.015-.088-.012-.088-.007-.083v-.084l.01-.149.024-.14.038-.134.05-.13.06-.121.07-.11.08-.107.092-.096.095-.087.107-.08.11-.072.115-.061.123-.054.126-.042.13-.034.133-.023h.008l.02-.004.026-.003.042-.004.046-.008.053-.004.057-.007.065-.008.065-.007.065-.008.07-.004.06-.007.061-.004.057-.004.054-.004h.13l.092.004.084.004h.084l.069.004.053.003.038.004h.012l.007-.027.023-.068.02-.08.007-.072-.015-.084-.035-.076-.045-.069-.062-.057-.072-.05-.08-.034-.092-.023-.1-.007-.106-.004-.115-.004h-.118l-.123.004-.126.008-.122.01-.122.012-.119.016-.114.015-.111.019-.1.019-.091.019-.084.023-.069.023-.053.026-.042.023.271-.918.084-.034.084-.03.091-.027.092-.02.092-.018.1-.015.099-.016.103-.007.107-.008.11-.004.115-.004h.367l.133.004.134.004.107.008.115.019.118.026.122.035.119.045.114.054.115.064.107.073.095.084.085.091.076.103.057.114.038.122.023.13v.144l-.023.153-.386 2.01"/>
        <path fill="#ED1C2E" fill-rule="nonzero" d="M130.012 12.295l-.004-.019-.015-.019-.023-.011-.038-.008-.042-.007-.05-.004h-.114l-.062.004-.065.007-.06.008-.062.008-.057.007-.054.012-.045.011-.042.011-.027.008-.03.011-.043.016-.042.019-.05.023-.05.026-.052.027-.05.03-.054.038-.05.038-.045.046-.042.046-.039.05-.026.053-.023.06-.012.062-.003.129.019.103.038.076.05.057.057.038.065.023.061.012.061.003.115-.003.103-.012.1-.015.087-.023.076-.027.073-.034.065-.034.057-.042.05-.038.046-.046.038-.042.03-.045.027-.046.023-.046.02-.042.01-.042.031-.11.027-.126.023-.122z"/>
        <path fill="#FFF" fill-rule="nonzero" d="M122.895 14.135h-1.039l.867-5h1.807l.172 2.966 1.25-2.967h1.886l-.886 5h-1.039l.657-3.735h-.042l-1.555 3.736H123.8l-.007-.156-.027-.415-.034-.59-.038-.679-.039-.681-.034-.598-.027-.434-.007-.183h-.058z"/>
        <path stroke="#FFF" stroke-width=".216" d="M122.895 14.135h-1.039l.867-5h1.807l.172 2.966 1.25-2.967h1.886l-.886 5h-1.039l.657-3.735h-.042l-1.555 3.736H123.8l-.007-.156-.027-.415-.034-.59-.038-.679-.039-.681-.034-.598-.027-.434-.007-.183h-.058l-.634 3.736"/>
        <path fill="#FFF" fill-rule="nonzero" d="M149.892 13.29l-.157.845h-.959l.008-.156.004-.137v-.103l.007-.046-.05.057-.056.057-.07.054-.076.053-.08.05-.092.045-.095.046-.095.038-.104.03-.107.031-.107.02-.107.014-.11.008-.107.004-.104-.012-.103-.015-.137-.034-.122-.038-.107-.05-.1-.057-.084-.06-.072-.07-.062-.072-.053-.076-.046-.08-.034-.084-.03-.084-.02-.083-.015-.088-.011-.088-.008-.083v-.084l.008-.149.022-.14.035-.134.05-.13.057-.121.072-.11.08-.107.088-.096.1-.087.103-.08.11-.072.119-.061.119-.054.126-.042.126-.034.13-.023h.007l.02-.004.026-.003.038-.004.05-.008.053-.004.058-.007.06-.008.066-.007.068-.008.065-.004.065-.007.061-.004.054-.004.053-.004h.134l.092.004.087.004h.085l.072.004.061.003.035.004h.015l.008-.027.011-.068.012-.08.007-.072-.015-.084-.03-.076-.05-.069-.058-.057-.068-.05-.08-.034-.085-.023-.091-.007-.107-.004-.115-.004h-.118l-.123.004-.126.008-.122.01-.122.012-.118.016-.115.015-.11.019-.1.019-.092.019-.084.023-.069.023-.053.026-.042.023.267-.918.084-.034.088-.03.088-.027.092-.02.095-.018.096-.015.099-.016.103-.007.107-.008.111-.004.11-.004h.36l.13.004.13.004.106.008.115.019.119.026.122.035.118.045.119.054.114.064.107.073.096.084.088.091.076.103.057.114.042.122.027.13v.144l-.02.153z"/>
        <path fill="#FFF" fill-rule="nonzero" d="M149.735 14.162l.023-.023.157-.846-.046-.007-.157.845.023-.023v.054l.02-.004.003-.02z"/>
        <path fill="#FFF" fill-rule="nonzero" d="M148.753 14.153l.023.045h.96v-.09h-.96l.023.045h-.046l-.003.045h.026z"/>
        <path fill="#FFF" fill-rule="nonzero" d="M148.857 13.708l-.058-.03-.026.06-.007.104v.137l-.013.156h.078l.013-.156.013-.137-.007-.103v-.03l-.058-.031z"/>
        <path fill="#FFF" fill-rule="nonzero" d="M147.329 14.196l.106.015.104.011.107-.003.11-.008.111-.015.107-.02.107-.03.107-.03.096-.038.099-.046.092-.046.08-.053.08-.053.069-.054.06-.06.05-.058-.038-.03-.05.057-.053.053-.069.054-.072.053-.08.046-.092.045-.092.046-.095.038-.1.03-.107.031-.106.02-.104.014-.11.008-.107.004-.104-.012-.099-.015z"/>
        <path fill="#FFF" fill-rule="nonzero" d="M146.404 13.042l.004.084.008.083.01.092.016.087.02.084.03.088.034.087.05.08.053.08.062.073.076.072.088.061.1.06.11.05.126.039.138.034.007-.046-.137-.034-.119-.038-.103-.05-.1-.053-.08-.061-.068-.065-.061-.072-.054-.072-.042-.08-.034-.08-.03-.08-.02-.084-.015-.088-.012-.084-.007-.083.004-.084z"/>
        <path fill="#FFF" fill-rule="nonzero" d="M147.776 11.58l-.134.022-.13.035-.126.041-.122.054-.119.06-.114.077-.104.08-.099.091-.092.095-.08.107-.076.114-.057.126-.05.13-.034.137-.023.144-.012.149h.054l.003-.149.023-.137.035-.13.05-.129.057-.118.068-.106.08-.107.085-.095.099-.084.103-.08.107-.069.119-.06.114-.054.126-.042.122-.034.127-.023zM148.563 11.5h-.043l-.053.012-.054.006-.06.006-.066.012-.065.006-.068.013-.065.012-.061.012-.058.012-.053.006-.05.013-.038.006-.03.006-.016.006h-.007v.073h.007l.023-.006.023-.006.038-.006.05-.012.053-.006.058-.013.06-.012.066-.012.068-.012.065-.006.065-.013.061-.006.054-.006h.096zM149.078 11.57l.023-.032h-.015l-.035-.007-.06-.006-.073-.013h-.172l-.092-.012h-.091v.089h.183l.087.013h.157l.061.006.035.007h.015l.023-.033-.023.033.02.006.003-.039z"/>
        <path fill="#FFF" fill-rule="nonzero" d="M149.143 11.298h-.007l-.006.072-.02.076-.019.069-.013.026.078.008.013-.027.019-.068.02-.084.019-.072h-.007zM148.662 10.92v.004l.088.004.08.023.076.034.065.046.054.053.046.065.03.069.015.08h.046l-.015-.088-.03-.084-.054-.072-.061-.061-.073-.053-.084-.035-.088-.023-.095-.011v.004z"/>
        <path fill="#FFF" fill-rule="nonzero" d="M147.023 11.103l.038.023.038-.019.05-.027.065-.022.084-.023.092-.02.099-.018.11-.02.112-.015.118-.015.122-.011.122-.012.126-.007h.356l.107.003v-.045l-.107-.004-.115-.007h-.118l-.123.007-.126.008-.122.011-.122.012-.118.015-.119.015-.11.02-.1.018-.092.02-.084.022-.072.023-.058.026-.045.027.038.023z"/>
        <path fill="#FFF" fill-rule="nonzero" d="M147.306 10.166l-.016.02-.267.917.046.008.267-.918-.015.02-.015-.047-.012.004-.004.016z"/>
        <path fill="#FFF" fill-rule="nonzero" d="M149.006 9.991l-.13-.007-.13-.004h-.359l-.111.008-.11.003-.108.008-.103.007-.103.016-.096.015-.095.019-.092.02-.091.026-.088.03-.084.034.015.046.084-.034.088-.03.084-.027.091-.02.096-.018.096-.016.095-.015.103-.007.107-.008.111-.004h.47l.13.004h.13z"/>
        <path fill="#FFF" fill-rule="nonzero" d="M150.316 11.282l.019-.156v-.144l-.027-.134-.042-.125-.06-.119-.077-.106-.092-.095-.096-.084-.11-.073-.115-.068-.122-.053-.119-.046-.126-.034-.118-.027-.119-.02-.106-.007v.046l.106.008.111.019.119.026.118.035.119.045.114.054.115.06.103.073.095.084.084.087.077.1.053.11.042.118.027.126v.144l-.02.149z"/>
        <path fill="#FFF" fill-rule="nonzero" d="M149.915 13.293l.4-2.01-.045-.008-.401 2.01z"/>
        <path fill="#FCB331" fill-rule="nonzero" d="M148.967 12.295l-.007-.022-.016-.02-.026-.01-.038-.012-.042-.004-.05-.004h-.058l-.057.004-.06.007-.062.008-.061.008-.057.007-.058.012-.05.007-.049.012-.038.007-.027.004-.03.012-.039.011-.042.015-.05.023-.045.023-.054.027-.05.034-.05.034-.049.042-.042.042-.042.05-.034.053-.027.057-.023.061-.011.065-.004.129.019.103.03.076.046.057.058.038.065.023.065.012.064.003.115-.003.107-.012.1-.019.087-.026.084-.031.073-.034.069-.038.06-.046.054-.042.046-.05.042-.045.035-.05.026-.045.02-.046.015-.046.011-.042.015-.106.02-.11.015-.107z"/>
        <path fill="#FFF" fill-rule="nonzero" d="M150.178 14.135h1.078l.386-2.167.015-.084.022-.084.024-.084.03-.083.038-.084.046-.08.05-.076.061-.072.069-.065.076-.061.088-.057.1-.046.11-.038.122-.03.134-.023.149-.008H152.871l.172-.979-.107.008-.103.011-.095.02-.092.026-.084.03-.08.038-.077.042-.072.046-.069.053-.065.054-.061.06-.061.062-.057.064-.058.073-.057.068-.053.076.114-.689h-1.073l-.715 4.079z"/>
        <path stroke="#FFF" stroke-width=".216" d="M150.178 14.135h1.078l.386-2.167.015-.084.022-.084.024-.084.03-.083.038-.084.046-.08.05-.076.061-.072.069-.065.076-.061.088-.057.1-.046.11-.038.122-.03.134-.023.149-.008H152.871l.172-.979-.107.008-.103.011-.095.02-.092.026-.084.03-.08.038-.077.042-.072.046-.069.053-.065.054-.061.06-.061.062-.057.064-.058.073-.057.068-.053.076.114-.689h-1.073l-.715 4.079"/>
        <path fill="#FFF" fill-rule="nonzero" d="M140.063 14.135h1.097l.366-2.167.015-.084.02-.08.018-.08.027-.076.03-.076.039-.072.046-.07.053-.064.061-.057.07-.057.083-.046.092-.042.107-.034.118-.03.13-.02.149-.011h.011l.016.004.019.004h.019l.02.003.014.004.012.004h.004l.003-.015.012-.046.015-.068.02-.084.026-.1.027-.106.034-.106.035-.107.03-.072.038-.073.038-.072.039-.065.034-.057.027-.046.019-.026.007-.012h-.003l-.016-.004-.019-.003-.026-.004h-.027l-.03-.004-.027-.004h-.027l-.119.008-.107.011-.099.02-.092.022-.087.03-.08.039-.073.038-.07.045-.064.05-.061.057-.057.057-.058.065-.057.065-.053.072-.058.076-.057.076.137-.689h-1.096l-.714 4.079z"/>
        <path stroke="#FFF" stroke-width=".216" d="M140.063 14.135h1.097l.366-2.167.015-.084.02-.08.018-.08.027-.076.03-.076.039-.072.046-.07.053-.064.061-.057.07-.057.083-.046.092-.042.107-.034.118-.03.13-.02.149-.011h.011l.016.004.019.004h.019l.02.003.014.004.012.004h.004l.003-.015.012-.046.015-.068.02-.084.026-.1.027-.106.034-.106.035-.107.03-.072.038-.073.038-.072.039-.065.034-.057.027-.046.019-.026.007-.012h-.003l-.016-.004-.019-.003-.026-.004h-.027l-.03-.004-.027-.004h-.027l-.119.008-.107.011-.099.02-.092.022-.087.03-.08.039-.073.038-.07.045-.064.05-.061.057-.057.057-.058.065-.057.065-.053.072-.058.076-.057.076.137-.689h-1.096l-.714 4.079"/>
        <g>
            <path fill="#005BAC" d="M203.069 4.366l-2.198 13.87h3.517l2.198-13.87h-3.517zm-5.158 0l-3.353 9.54-.397-2.055-.087-.46a11.472 11.472 0 0 0-3.12-4.06 14.066 14.066 0 0 0-1.565-1.113l3.047 12.017h3.665l5.596-13.87h-3.786zm13.727 3.85c0-1.568 3.426-1.367 4.93-.515l.503-2.979s-1.55-.605-3.164-.605c-1.745 0-5.89.784-5.89 4.592 0 3.583 4.865 3.628 4.865 5.51 0 1.881-4.364 1.545-5.804.358l-.523 3.113s1.57.784 3.97.784c2.4 0 6.022-1.276 6.022-4.748 0-3.606-4.909-3.942-4.909-5.51zm14.353-3.85h-2.828c-1.306 0-1.624 1.033-1.624 1.033l-5.245 12.836h3.666l.733-2.06h4.472l.412 2.06h3.23l-2.816-13.87zm-4.284 8.963l1.848-5.19 1.04 5.19h-2.888z"/>
            <path fill="#F6AC1D" d="M192.878 5.247s-.149-1.212-1.732-1.212h-5.752l-.067.228s2.765.55 5.417 2.61c2.535 1.968 3.362 4.422 3.362 4.422l-1.228-6.048z"/>
        </g>
    </g>
</svg>
