<svg xmlns="http://www.w3.org/2000/svg" width="27" height="27" viewBox="0 0 27 27">
    <g fill="#3A89DB" fill-rule="evenodd">
        <path fill-rule="nonzero" d="M20.945 16.518c-.53-.552-1.17-.847-1.848-.847-.673 0-1.318.29-1.87.842l-1.728 1.723c-.143-.077-.285-.148-.421-.22-.197-.098-.383-.19-.542-.289-1.619-1.028-3.09-2.368-4.5-4.101-.684-.865-1.144-1.592-1.477-2.33.448-.41.864-.837 1.269-1.247.153-.153.306-.312.459-.465 1.148-1.148 1.148-2.636 0-3.784L8.794 4.307c-.17-.17-.345-.345-.509-.52-.328-.339-.672-.689-1.028-1.017-.53-.525-1.165-.804-1.832-.804s-1.312.28-1.86.804l-.01.011-1.86 1.876A4 4 0 0 0 .51 7.2c-.131 1.597.339 3.084.7 4.058.886 2.39 2.21 4.604 4.183 6.978 2.396 2.86 5.278 5.118 8.57 6.71 1.258.596 2.937 1.301 4.812 1.422.115.005.236.01.345.01 1.263 0 2.324-.453 3.155-1.356.006-.01.017-.016.022-.027.285-.345.613-.656.957-.99.235-.224.476-.46.711-.705.542-.564.826-1.22.826-1.892 0-.679-.29-1.33-.842-1.876l-3.003-3.014zm1.958 5.759c-.005 0-.005.005 0 0-.213.23-.432.438-.667.667-.355.34-.716.695-1.055 1.094-.553.59-1.204.87-2.057.87-.082 0-.17 0-.251-.006-1.624-.104-3.134-.738-4.266-1.28-3.095-1.498-5.813-3.625-8.072-6.321-1.864-2.248-3.111-4.326-3.937-6.557-.509-1.362-.695-2.423-.613-3.424.055-.64.301-1.17.755-1.624L4.605 3.83c.268-.251.552-.388.831-.388.345 0 .624.208.799.383l.016.016c.334.312.65.634.984.979.17.175.345.35.52.53l1.493 1.493c.58.58.58 1.116 0 1.696-.159.158-.312.317-.47.47-.46.47-.897.908-1.373 1.334-.011.011-.022.017-.027.028-.47.47-.383.93-.285 1.241l.017.05c.388.94.935 1.826 1.766 2.881l.006.006c1.509 1.86 3.1 3.308 4.856 4.418.224.143.454.257.672.367.197.098.383.191.542.29.022.01.044.027.065.038.186.093.361.137.542.137.454 0 .738-.285.831-.378l1.87-1.87c.186-.186.482-.41.826-.41.34 0 .618.213.788.4l.01.01 3.014 3.013c.563.558.563 1.132.005 1.712z"/>
        <path d="M14.47 6.631a6.935 6.935 0 0 1 3.774 1.958 6.971 6.971 0 0 1 1.958 3.773c.06.361.372.613.727.613.044 0 .082-.006.126-.011a.739.739 0 0 0 .607-.853 8.435 8.435 0 0 0-2.368-4.567 8.435 8.435 0 0 0-4.566-2.368.742.742 0 0 0-.854.602.73.73 0 0 0 .597.853zM26.349 11.897a13.876 13.876 0 0 0-3.9-7.519 13.876 13.876 0 0 0-7.52-3.9.736.736 0 0 0-.847.602.742.742 0 0 0 .607.853 12.425 12.425 0 0 1 6.721 3.484 12.39 12.39 0 0 1 3.484 6.721c.06.361.372.613.727.613.044 0 .082-.006.126-.011.4-.06.673-.443.602-.843z"/>
    </g>
</svg>
