<svg xmlns="http://www.w3.org/2000/svg" xmlns:xlink="http://www.w3.org/1999/xlink" width="682" height="637" viewBox="0 0 682 637">
    <defs>
        <linearGradient id="b" x1="10.268%" x2="58.617%" y1="87.903%" y2="22.999%">
            <stop offset="0%" stop-color="#3A89DB"/>
            <stop offset="100%" stop-color="#92C8FF"/>
        </linearGradient>
        <path id="a" d="M138.28 40.62c-9.358 12.03-21.39 14.26-21.834.891-.445-13.37 14.705-36.989 0-38.772-14.704-1.782-24.953 30.75-28.961 45.456-4.01 14.707-19.607 11.587-24.062-4.011-4.457-15.597-10.693-18.271-15.594-14.26-4.903 4.012.444 11.141-3.565 43.673-4.01 32.532-18.716 5.348-26.734-6.685C9.508 54.88-6.532 58.89 3.27 81.617c9.805 22.728 44.559 60.607 44.559 60.607h13.366s3.564-14.704 12.922-20.946c5.057-3.37 13.89-1.534 21.856.303 6.768 1.559 12.91 3.121 15.572 1.482 5.791-3.565-5.348-10.25-11.585-16.489-6.238-6.238 3.118-9.805 20.05-2.229 16.93 7.577 23.616-7.576 24.952-12.033 1.337-4.456-.446-29.856 26.734-20.906 27.18 8.95 28.071-14.298 22.278-28.559-5.792-14.26 14.257-28.966 0-40.178-1.832-1.44-3.957-2.083-6.293-2.083-15.835.003-41.249 29.548-49.402 40.033"/>
        <path id="d" d="M0 1.344h456.916v48.212H0z"/>
        <path id="f" d="M1.363.607h78.204V8.86H1.363z"/>
        <path id="g" d="M80.594 1.29C27.2 8.628 32.246 50.833 32.246 50.833S-23.711 67.347 14.357 135.7c7.339 16.056-4.554 26.149 2.31 48.168 6.863 22.02 33.007 70.646 99.974 42.663 66.966-27.983 63.295-72.021 52.746-90.831-10.549-18.808-11.925-22.02-10.09-55.049C161.015 49.697 137.28.61 90.34.608c-3.144 0-6.393.22-9.746.682"/>
        <linearGradient id="h" x1="84.201%" x2="19.583%" y1="10.04%" y2="93.252%">
            <stop offset="0%" stop-color="#542F1C"/>
            <stop offset="100%" stop-color="#87543B"/>
        </linearGradient>
        <linearGradient id="j" x1="7.688%" x2="109.751%" y1="91.109%" y2="25.701%">
            <stop offset="0%" stop-color="#EDEDED"/>
            <stop offset="100%" stop-color="#D6D6D6"/>
        </linearGradient>
        <path id="k" d="M3.838 1.385a2.95 2.95 0 0 0-2.772 3.963l28.81 79.077a2.952 2.952 0 0 0 2.771 1.942h94.43c2.053 0 3.479-2.044 2.77-3.972L100.781 3.318a2.953 2.953 0 0 0-2.772-1.933H3.839z"/>
        <linearGradient id="l" x1="-1.043%" x2="100.993%" y1="5.295%" y2="94.836%">
            <stop offset="0%" stop-color="#FF7624"/>
            <stop offset="100%" stop-color="#F9AF85"/>
        </linearGradient>
        <path id="n" d="M.106.107h54.68v109.625H.106z"/>
        <path id="p" d="M0 .213h109.893v54.68H0z"/>
        <path id="r" d="M.069.04h72.756v92.723H.07z"/>
        <path id="t" d="M0 .04h75.944v92.723H0z"/>
        <path id="v" d="M.172.089h71.214v91.154H.172z"/>
        <path id="x" d="M0 .177h8.584v2.849H0z"/>
        <path id="z" d="M0 .177h8.584v2.849H0z"/>
        <path id="B" d="M0 .177h8.584v2.849H0z"/>
        <path id="D" d="M0 .177h8.584v2.849H0z"/>
        <path id="F" d="M0 .177h8.584v2.849H0z"/>
        <path id="H" d="M0 .177h8.584v2.849H0z"/>
        <path id="J" d="M0 .177h8.584v2.849H0z"/>
        <path id="L" d="M0 .177h8.584v2.849H0z"/>
        <path id="N" d="M0 .177h8.584v2.849H0z"/>
        <path id="P" d="M0 .177h8.584v2.849H0z"/>
        <path id="R" d="M0 .177h8.584v2.849H0z"/>
        <path id="T" d="M0 .35h17.65V18H0z"/>
        <path id="V" d="M0 .272h13.728V14H0z"/>
        <path id="X" d="M0 .35h17.65V18H0z"/>
        <path id="Z" d="M0 .272h13.728V14H0z"/>
        <path id="ab" d="M0 .272h13.728V14H0z"/>
    </defs>
    <g fill="none" fill-rule="evenodd">
        <g transform="translate(215.524 417.012)">
            <path fill="#3A89DB" d="M97.427 141.086c0 2.278-17.506 4.125-39.101 4.125-21.596 0-39.103-1.847-39.103-4.125 0-2.28 17.507-4.127 39.103-4.127 21.595 0 39.1 1.847 39.1 4.127"/>
            <mask id="c" fill="#fff">
                <use xlink:href="#a"/>
            </mask>
            <use fill="url(#b)" xlink:href="#a"/>
            <path fill="#FFF" d="M181.498 35.272c-11.419 9.856-23.535 18.992-36.688 26.59a111.269 111.269 0 0 1-4.994 2.748c-1.66.905-3.437 1.721-5.189 2.47-3.52 1.498-7.094 2.778-10.671 4.016-7.163 2.44-14.37 4.643-21.471 7.088-7.114 2.398-14.169 4.965-20.896 8.159-6.675 3.176-13.27 6.971-17.925 12.529-1.178 1.373-2.08 2.923-2.874 4.518-.303.83-.678 1.646-.888 2.507-.19.87-.434 1.703-.555 2.659a315.43 315.43 0 0 0-1.622 11.161c-.939 7.456-1.686 14.968-1.43 22.507-.507-3.744-.561-7.54-.513-11.318.052-3.78.241-7.561.505-11.333.304-3.771.69-7.534 1.144-11.29.079-.922.297-1.92.49-2.896.212-.974.592-1.903.914-2.845.821-1.807 1.785-3.562 3.019-5.097 2.403-3.128 5.4-5.68 8.568-7.87 3.172-2.194 6.532-4.059 9.954-5.75 6.866-3.355 14.006-5.972 21.16-8.436 7.174-2.408 14.395-4.605 21.536-6.936 3.57-1.162 7.12-2.364 10.565-3.755 1.73-.7 3.39-1.44 5.067-2.291a107.333 107.333 0 0 0 4.993-2.553c6.601-3.534 13-7.493 19.285-11.627 6.317-4.092 12.446-8.477 18.516-12.955" mask="url(#c)"/>
        </g>
        <g transform="translate(224.381 572.905)">
            <mask id="e" fill="#fff">
                <use xlink:href="#d"/>
            </mask>
            <path fill="#F9FBFC" d="M456.917 25.45c0 13.314-102.284 24.106-228.458 24.106C102.284 49.556 0 38.764 0 25.45 0 12.137 102.284 1.344 228.46 1.344c126.174 0 228.458 10.793 228.458 24.106" mask="url(#e)"/>
        </g>
        <path fill="#B15820" d="M611.063 434.776H465.758L410.03 403.81h117.967z"/>
        <path fill="#FF7624" d="M611.063 247.718v187.058H591.69v-7.221l-63.693-23.744V222.666s39.172-45.713 83.066 25.052"/>
        <path fill="#C15F21" d="M591.69 244.45v183.105l-83.067-27.011V219.398s39.172-45.713 83.067 25.052"/>
        <path fill="#FF7624" d="M465.757 459.204h145.306v-24.427H465.757z"/>
        <path fill="#C15F21" d="M410.03 403.81v19.957l55.728 35.437v-24.427z"/>
        <path fill="#1D184C" d="M410.031 528.477h6.153V424.11h-6.153z"/>
        <path fill="#5167B0" d="M516.988 334.54s-57.42 32.572-89.07 35.782c-31.648 3.211-25.1 62.39-26.08 72.941-.982 10.55-7.86 78.446-7.86 78.446s8.255 6.42 16.053 2.752c0 0 41.076-102.866 48.159-143.587 0 0 64.06-25.612 91.657-52.487 0 0-17.635 6.613-32.859 6.154"/>
        <path fill="#425597" d="M558.18 324.448s40.821 48.168 0 84.866c-30.63 22.94-104.117 25.692-104.117 25.692s9.63 75.233-3.671 122.484c0 0-7.798 7.338-20.639 2.293 0 0-3.345-33.373-10.847-60.037 0 0 33.322-90.432 39.284-118.872 0 0 56.838-23.589 91.656-52.487 0 0 3.748-2.104 8.334-3.939"/>
        <g transform="translate(436.952 42.868)">
            <mask id="i" fill="#fff">
                <use xlink:href="#g"/>
            </mask>
            <path fill="url(#h)" d="M80.594 1.29C27.2 8.628 32.246 50.833 32.246 50.833S-23.711 67.347 14.357 135.7c7.339 16.056-4.554 26.149 2.31 48.168 6.863 22.02 33.007 70.646 99.974 42.663 66.966-27.983 63.295-72.021 52.746-90.831-10.549-18.808-11.925-22.02-10.09-55.049C161.015 49.697 137.28.61 90.34.608c-3.144 0-6.393.22-9.746.682" mask="url(#i)"/>
        </g>
        <g>
            <path fill="#F7D1B7" d="M465.529 127.648s-3.67 75.234 47.242 71.564c50.913-3.67 51.83-40.828 49.537-44.04 0 0 16.002-12.844.663-27.524-7.544-7.799-15.34 7.798-15.34 7.798s-39.905 15.14-73.846-20.184c0 0-2.294 8.258-8.256 12.386"/>
            <path fill="#EDC6AB" d="M517.546 198.751s2.939 12.847 0 20.187c-2.94 7.34 6.234 17.89 15.866 7.34 9.63-10.55 8.256-17.432 8.256-17.432s-2.494-5.92-1.935-16.265c0 0-10.372 4.127-22.187 6.17"/>
            <path fill="url(#j)" d="M144.358 227.126s69.718-.459 80.725-62.389c11.01-61.93 34.13-61.012 34.13-61.012s-.444 10.353 10.003 11.369c0 0-26.703 95.976-46.425 106.07-19.723 10.09-58.252 19.724-74.765 19.724 0 0-6.879-6.881-3.668-13.762" transform="translate(258.333 115.213)"/>
            <path fill="#F6F6F6" d="M516.988 334.54s.018-36.373-6.052-47.02c-6.067-10.65-13.76-23.626-6.88-41.974 6.88-18.35 13.49-26.608 13.49-26.608l24.122-10.093s15.136-3.55 25.685 2.813l-9.173 112.79s-20.922 11.928-41.192 10.093"/>
            <path fill="#FFF" d="M259.128 369.178v12.204c0 4.333 52.057 7.847 116.273 7.847s116.27-3.514 116.27-7.847v-12.204H259.129z"/>
            <path fill="#C15F21" d="M491.672 369.178c0 4.334-52.056 7.847-116.272 7.847-64.216 0-116.272-3.513-116.272-7.847 0-4.335 52.056-7.848 116.272-7.848 64.216 0 116.272 3.513 116.272 7.848"/>
            <path fill="#E2995F" d="M402.691 342.34s-15.365-2.753-19.952-2.295c-4.586.46-12.843 8.717-19.952 11.24-7.11 2.523 2.752 7.799 13.988 5.963 11.239-1.835 18.12 1.376 29.585-1.147 0 0-5.963-5.734-3.669-13.762"/>
            <path fill="#1D184C" d="M283.548 589.6v8.853c0 3.145 37.763 5.695 84.344 5.695 46.581 0 84.343-2.55 84.343-5.695v-8.852H283.548z"/>
            <path fill="#F79B67" d="M402.926 366.94h65.988v-4.243h-67.548z"/>
            <path fill="#ED9169" d="M280.065 285.92l28.81 79.078a2.954 2.954 0 0 0 2.773 1.942h94.428c2.053 0 3.48-2.045 2.77-3.972l-29.066-79.077a2.953 2.953 0 0 0-2.77-1.934h-94.171c-2.049 0-3.476 2.037-2.774 3.964"/>
        </g>
        <g transform="translate(274.571 280.573)">
            <mask id="m" fill="#fff">
                <use xlink:href="#k"/>
            </mask>
            <path fill="url(#l)" d="M3.838 1.385a2.95 2.95 0 0 0-2.772 3.963l28.81 79.077a2.952 2.952 0 0 0 2.771 1.942h94.43c2.053 0 3.479-2.044 2.77-3.972L100.781 3.318a2.953 2.953 0 0 0-2.772-1.933H3.839z" mask="url(#m)"/>
        </g>
        <g>
            <path fill="#DA8352" d="M367.892 595.294c-46.58 0-84.343-2.549-84.343-5.693 0-3.144 37.762-5.692 84.343-5.692 46.582 0 84.344 2.548 84.344 5.692s-37.762 5.693-84.344 5.693z"/>
            <path fill="#D6D6D6" d="M360.385 586.39h15.016V389.229h-15.016z"/>
            <path fill="#573A84" d="M393.977 521.708s-15.246 23.165-26.086 30.735c-10.838 7.568-7.168 22.02 7.51 13.075 14.676-8.947 22.932-18.962 28.437-20.491 5.503-1.53 6.193-20.567 6.193-20.567s-10.436.917-16.054-2.752M432.503 559.381s6.11 5.915-6.898 12.419c-13.007 6.505-35.391 12.2-31.435 17.708 3.956 5.51 32.52-2.41 41.191-3.372 8.673-.964 17.843-4.946 16.87-10.725-.971-5.779-1.935-19.63-1.935-19.63s-4.753 6-17.793 3.6"/>
            <path fill="#FFF" d="M471.392 366.653s84.698-34.656 86.688-59.124c1.99-24.467-8.257-71.618-2.753-83.545 5.504-11.928 10.55-12.326 10.55-12.326s17.888-.06 20.64 22.418c2.753 22.478 1.833 88.538-24.767 105.052-26.604 16.515-86.23 36.24-86.23 36.24s-7.34-1.376-4.128-8.715"/>
            <path fill="#F7D1B7" d="M472.868 366.653s-13.991-.688-19.266 0c-5.273.688-14.676 8.715-20.18 11.927-5.504 3.21-4.128 7.798-1.375 7.798 0 0 7.453 2.982 19.205 0 11.754-2.98 25.744-11.01 25.744-11.01s-6.881-2.064-4.128-8.715"/>
            <path fill="#542F1D" d="M472.055 157.302c1.184.754 2.186 1.501 3.183 2.095.978.604 1.926 1.018 2.68 1.063.73.044 1.51-.169 2.433-.815.446-.309.908-.7 1.404-1.075.47-.42.94-.86 1.547-1.268-.02.701-.173 1.371-.33 2.06-.27.631-.528 1.31-.966 1.91-.802 1.205-2.486 2.294-4.315 2.13-1.807-.16-3.125-1.209-4.01-2.294-.88-1.127-1.477-2.392-1.626-3.806M501.35 151.617c1.84.268 3.538.414 5.135.265 1.592-.146 3.026-.568 4.314-1.306 1.272-.775 2.413-1.824 3.512-3.06l1.598-1.988c.5-.716 1.001-1.449 1.637-2.168-.016.93-.168 1.843-.32 2.775-.283.88-.55 1.8-.974 2.656-.883 1.696-2.203 3.285-3.983 4.343-1.79 1.04-3.956 1.378-5.9 1.059-1.942-.335-3.728-1.206-5.02-2.576M501.35 182.927c1.352-.813 2.586-1.532 3.687-2.315 1.101-.776 2.037-1.608 2.718-2.54.679-.928 1.166-1.975 1.349-3.256.19-.622.143-1.31.247-2.016.04-.716-.01-1.442.095-2.26.51.594.951 1.255 1.323 1.964.242.748.64 1.5.657 2.35.267 1.654-.221 3.551-1.292 4.964-1.055 1.435-2.56 2.378-4.089 2.876-1.542.475-3.144.633-4.695.233"/>
            <path fill="#1D184C" d="M465.759 604.147h6.153V459.203h-6.153zM604.91 604.147h6.153V459.203h-6.153zM507.47 529.39h6.153v-70.186h-6.153z"/>
            <path fill="#DBB295" d="M493.134 153.539l-4.36 21.944a12.43 12.43 0 0 0 5.305 1.389c4.473.136 7.617-2.263 8.526-3.012-2.227.718-5.457 1.36-9.133.66a17.497 17.497 0 0 1-1.88-.47l1.542-20.511"/>
        </g>
        <g>
            <path fill="#FFCD00" d="M253.538 34.42c-4.404 0-7.963 1.238-10.421 3.697-4.371 4.367-4.883 12.217-1.446 22.097 3.582 10.298 10.986 21.4 20.85 31.265 9.864 9.864 20.967 17.267 31.265 20.85 9.882 3.435 17.728 2.923 22.098-1.446 4.37-4.368 4.882-12.216 1.445-22.098-3.583-10.297-10.986-21.4-20.85-31.264s-20.967-17.267-31.265-20.85c-4.322-1.502-8.254-2.252-11.676-2.252M305.46 118c-3.823 0-8.13-.807-12.8-2.432-10.777-3.749-22.34-11.442-32.563-21.663-10.223-10.223-17.916-21.786-21.665-32.564-3.892-11.192-3.09-20.3 2.26-25.65 5.347-5.348 14.456-6.154 25.65-2.26 10.778 3.749 22.341 11.442 32.564 21.665 10.222 10.222 17.915 21.786 21.663 32.562 3.894 11.193 3.09 20.3-2.259 25.651-3.117 3.117-7.51 4.691-12.85 4.691"/>
            <path fill="#FF9100" d="M305.462 34.42c-3.424 0-7.355.749-11.676 2.251-10.298 3.583-21.402 10.986-31.265 20.85-9.865 9.864-17.268 20.967-20.85 31.264-3.437 9.882-2.926 17.73 1.445 22.098 4.368 4.372 12.22 4.88 22.097 1.446 10.298-3.583 21.402-10.986 31.266-20.85 9.864-9.865 17.267-20.967 20.85-31.265 3.437-9.88 2.924-17.73-1.445-22.097-2.46-2.46-6.019-3.698-10.422-3.698M253.541 118c-5.34 0-9.733-1.574-12.85-4.691-5.35-5.35-6.153-14.458-2.26-25.651 3.748-10.776 11.442-22.34 21.664-32.562 10.223-10.223 21.787-17.916 32.563-21.665 11.194-3.894 20.303-3.088 25.651 2.26 5.35 5.35 6.153 14.458 2.26 25.65-3.748 10.778-11.442 22.341-21.664 32.564-10.223 10.222-21.787 17.914-32.564 21.663-4.67 1.625-8.978 2.432-12.8 2.432"/>
            <g transform="translate(253 20)">
                <mask id="o" fill="#fff">
                    <use xlink:href="#n"/>
                </mask>
                <path fill="#FF4F19" d="M27.447 3.533c-12.968 0-23.923 23.532-23.923 51.386 0 27.855 10.955 51.387 23.923 51.387 12.966 0 23.922-23.532 23.922-51.387 0-27.854-10.956-51.386-23.922-51.386m0 106.2c-15.33 0-27.34-24.077-27.34-54.814C.106 24.183 12.116.106 27.446.106s27.34 24.077 27.34 54.813c0 30.737-12.01 54.813-27.34 54.813" mask="url(#o)"/>
            </g>
            <path fill="#FF4F19" d="M292 75c0 6.628-5.373 12-12 12s-12-5.372-12-12c0-6.627 5.373-12 12-12s12 5.373 12 12"/>
            <path fill="#FF8C62" d="M288 71.5a4.5 4.5 0 1 1-9 0 4.5 4.5 0 0 1 9 0"/>
            <g transform="translate(225 48)">
                <mask id="q" fill="#fff">
                    <use xlink:href="#p"/>
                </mask>
                <path fill="#E3001E" d="M54.947 3.63c-27.923 0-51.513 10.955-51.513 23.923 0 12.967 23.59 23.922 51.513 23.922 27.922 0 51.512-10.955 51.512-23.922 0-12.968-23.59-23.923-51.512-23.923m0 51.262C24.135 54.892 0 42.883 0 27.553 0 12.223 24.135.213 54.947.213c30.811 0 54.946 12.01 54.946 27.34s-24.135 27.34-54.946 27.34" mask="url(#q)"/>
            </g>
        </g>
        <g>
            <g transform="rotate(-10 1015.769 -899.278)">
                <mask id="s" fill="#fff">
                    <use xlink:href="#r"/>
                </mask>
                <path fill="#F2F2F2" d="M49.355 22.624V7.038h.236c2.034 0 3.677-1.559 3.677-3.506 0-1.95-1.643-3.508-3.677-3.508H24.086c-2.034 0-3.677 1.559-3.677 3.508 0 1.947 1.643 3.506 3.677 3.506h.236V22.39C10.16 27.3.069 40.782.069 56.524c0 20.03 16.272 36.239 36.379 36.239 20.105 0 36.377-16.21 36.377-36.239 0-15.508-9.778-28.679-23.47-33.9" mask="url(#s)"/>
            </g>
            <path fill="#E5E4E4" d="M209.72 166.17l-12.365 2.18 2.115 11.993c-13.121 7.387-20.746 22.445-18.008 37.974 3.484 19.758 22.379 32.914 42.241 29.412l.386-.069-14.369-81.49z"/>
            <path fill="#E2574C" d="M210.46 206.07c14.22-2.508 28.3-18.466 34.637-6.028 1.089 2.107 1.664 4.462 2.098 6.922 2.941 16.683-8.198 32.599-24.814 35.529-16.616 2.93-32.527-8.217-35.468-24.9-.624-3.535-.602-7.027-.089-10.447 1.507-7.717 10.498 1.24 23.637-1.076"/>
            <path fill="#D8544A" d="M216.444 204.301c-2.02.752-3.974 1.415-5.983 1.769-13.139 2.316-22.13-6.641-23.637 1.076-.603 3.356-.548 6.834.089 10.448 2.942 16.683 18.851 27.829 35.468 24.899l.773-.137-6.71-38.055z"/>
            <path fill="#E87970" d="M236.34 201.903c-1.467.258-2.487 1.707-2.23 3.167.258 1.461 1.712 2.473 3.18 2.215 1.469-.26 2.488-1.708 2.23-3.169-.257-1.46-1.71-2.472-3.18-2.213m-.42 11.172a3.507 3.507 0 0 0-2.867 4.072 3.507 3.507 0 0 0 4.087 2.847 3.508 3.508 0 0 0 2.868-4.074 3.507 3.507 0 0 0-4.088-2.845m-9.91 2.54c1.467-.26 2.487-1.707 2.23-3.168-.258-1.46-1.712-2.473-3.18-2.214-1.468.26-2.488 1.708-2.23 3.168.258 1.461 1.71 2.473 3.18 2.214m.446 7.055c-2.782.491-4.63 3.116-4.142 5.883.488 2.767 3.122 4.601 5.904 4.11 2.783-.49 4.63-3.114 4.143-5.882-.488-2.767-3.122-4.601-5.905-4.11"/>
            <g transform="rotate(-10 1029.269 -744.972)">
                <mask id="u" fill="#fff">
                    <use xlink:href="#t"/>
                </mask>
                <path fill="#E3E3E3" d="M51.146 10.156h24.798V7.038H51.146z" mask="url(#u)"/>
                <path fill="#F2F2F2" d="M38.747.024H3.1C1.395.024 0 1.427 0 3.141v.78c0 1.715 1.395 3.117 3.1 3.117v67.878c0 9.898 7.982 17.847 17.823 17.847 9.843 0 17.824-8.027 17.824-17.847V7.038c1.706 0 3.1-1.402 3.1-3.117v-.78c0-1.714-1.395-3.117-3.1-3.117" mask="url(#u)"/>
            </g>
            <g>
                <path fill="#E3E3E3" d="M149.874 176.925l35.221-6.21-.539-3.055-35.22 6.21z"/>
                <path fill="#F4B459" d="M174.98 185.887c3.752-.662 7.278.528 7.278.528l8.592 48.73c1.185 6.721-3.372 13.116-10.108 14.304-6.738 1.188-13.207-3.263-14.393-9.984l-8.592-48.73s3.449 1.203 7.277.528c3.829-.675 6.348-4.742 9.947-5.376"/>
                <path fill="#F7CB8B" d="M174.026 233.307c-1.301.23-2.122 1.398-1.893 2.697.23 1.298 1.4 2.115 2.701 1.886 1.302-.23 2.123-1.398 1.894-2.696-.216-1.223-1.476-2.103-2.702-1.887m7.19-10.718a3.48 3.48 0 0 0-2.84 4.044 3.48 3.48 0 0 0 4.052 2.83 3.48 3.48 0 0 0 2.839-4.045 3.48 3.48 0 0 0-4.052-2.829m-3.097-17.567c1.454-.257 2.464-1.695 2.208-3.146-.256-1.451-1.697-2.458-3.151-2.201-1.455.256-2.464 1.695-2.208 3.146.255 1.45 1.696 2.458 3.15 2.2m-6.6 5.103c-2.526.445-4.23 2.872-3.785 5.393.444 2.52 2.875 4.217 5.401 3.772 2.527-.446 4.23-2.873 3.787-5.392-.445-2.521-2.876-4.219-5.403-3.773"/>
                <path fill="#DE756C" d="M214.655 217.48c.595 3.375-1.665 6.594-5.048 7.19-3.382.597-6.607-1.655-7.202-5.03-.595-3.375 1.665-6.594 5.047-7.19 3.383-.597 6.608 1.655 7.203 5.03"/>
            </g>
        </g>
        <g>
            <g transform="rotate(20 -233.972 1028.16)">
                <mask id="w" fill="#fff">
                    <use xlink:href="#v"/>
                </mask>
                <path fill="#FFF" d="M67.113.089H4.445A4.278 4.278 0 0 0 .172 4.36V86.97a4.278 4.278 0 0 0 4.273 4.274h62.668a4.278 4.278 0 0 0 4.273-4.274V4.361A4.277 4.277 0 0 0 67.113.09" mask="url(#w)"/>
            </g>
            <path fill="#E2E2E2" d="M345.704 145.094l-5.391-1.962a4.278 4.278 0 0 0-5.476 2.553l-28.254 77.626a4.278 4.278 0 0 0 2.553 5.478l5.391 1.962 31.177-85.657z"/>
            <path fill="#3A89DB" d="M354.067 199.671l9.46-12.316c.03-.041.05-.086.078-.128l.191.07c-.005.05-.02.097-.021.148l-.671 15.516-9.037-3.29zm14.248 16.554l-.096-.035c.006-.05.02-.096.022-.147l1.155-26.744a2.134 2.134 0 0 0 1.119-4.103l-10.707-3.897a2.134 2.134 0 1 0-1.78 3.862l-16.307 21.23c-.03.04-.05.085-.077.126l-.096-.035a2.136 2.136 0 0 0-1.462 4.015l5.354 1.949a2.134 2.134 0 1 0 1.78-3.862l3.207-4.175 12.42 4.52-.228 5.26a2.134 2.134 0 0 0-1.118 4.103l5.353 1.948a2.137 2.137 0 1 0 1.461-4.015z"/>
            <g transform="rotate(20 -255.17 1008.156)">
                <mask id="y" fill="#fff">
                    <use xlink:href="#x"/>
                </mask>
                <path fill="#3A77DB" d="M7.16 3.026H1.425a1.423 1.423 0 1 1 0-2.849H7.16a1.424 1.424 0 0 1 0 2.849" mask="url(#y)"/>
            </g>
            <g transform="rotate(20 -275.364 1004.595)">
                <mask id="A" fill="#fff">
                    <use xlink:href="#z"/>
                </mask>
                <path fill="#3A77DB" d="M7.16 3.026H1.425a1.423 1.423 0 1 1 0-2.849H7.16a1.424 1.424 0 0 1 0 2.849" mask="url(#A)"/>
            </g>
            <g transform="rotate(20 -295.557 1001.034)">
                <mask id="C" fill="#fff">
                    <use xlink:href="#B"/>
                </mask>
                <path fill="#3A77DB" d="M7.16 3.026H1.425a1.423 1.423 0 1 1 0-2.849H7.16a1.424 1.424 0 0 1 0 2.849" mask="url(#C)"/>
            </g>
            <g transform="rotate(20 -315.751 997.474)">
                <mask id="E" fill="#fff">
                    <use xlink:href="#D"/>
                </mask>
                <path fill="#3A77DB" d="M7.16 3.026H1.425a1.423 1.423 0 1 1 0-2.849H7.16a1.424 1.424 0 0 1 0 2.849" mask="url(#E)"/>
            </g>
            <g transform="rotate(20 -335.945 993.913)">
                <mask id="G" fill="#fff">
                    <use xlink:href="#F"/>
                </mask>
                <path fill="#3A77DB" d="M7.16 3.026H1.425a1.423 1.423 0 1 1 0-2.849H7.16a1.424 1.424 0 0 1 0 2.849" mask="url(#G)"/>
            </g>
            <g transform="rotate(20 -356.139 990.352)">
                <mask id="I" fill="#fff">
                    <use xlink:href="#H"/>
                </mask>
                <path fill="#3A77DB" d="M7.16 3.026H1.425a1.423 1.423 0 1 1 0-2.849H7.16a1.424 1.424 0 0 1 0 2.849" mask="url(#I)"/>
            </g>
            <g transform="rotate(20 -376.332 986.792)">
                <mask id="K" fill="#fff">
                    <use xlink:href="#J"/>
                </mask>
                <path fill="#3A77DB" d="M7.16 3.026H1.425a1.423 1.423 0 1 1 0-2.849H7.16a1.424 1.424 0 0 1 0 2.849" mask="url(#K)"/>
            </g>
            <g transform="rotate(20 -396.526 983.23)">
                <mask id="M" fill="#fff">
                    <use xlink:href="#L"/>
                </mask>
                <path fill="#3A77DB" d="M7.16 3.026H1.425a1.423 1.423 0 1 1 0-2.849H7.16a1.424 1.424 0 0 1 0 2.849" mask="url(#M)"/>
            </g>
            <g transform="rotate(20 -416.72 979.67)">
                <mask id="O" fill="#fff">
                    <use xlink:href="#N"/>
                </mask>
                <path fill="#3A77DB" d="M7.16 3.026H1.425a1.423 1.423 0 1 1 0-2.849H7.16a1.424 1.424 0 0 1 0 2.849" mask="url(#O)"/>
            </g>
            <g transform="rotate(20 -436.913 976.11)">
                <mask id="Q" fill="#fff">
                    <use xlink:href="#P"/>
                </mask>
                <path fill="#3A77DB" d="M7.16 3.026H1.425a1.423 1.423 0 1 1 0-2.849H7.16a1.424 1.424 0 0 1 0 2.849" mask="url(#Q)"/>
            </g>
            <g transform="rotate(20 -457.107 972.549)">
                <mask id="S" fill="#fff">
                    <use xlink:href="#R"/>
                </mask>
                <path fill="#3A77DB" d="M7.16 3.026H1.425a1.423 1.423 0 1 1 0-2.849H7.16a1.424 1.424 0 0 1 0 2.849" mask="url(#S)"/>
            </g>
            <path fill="#3A89DB" d="M315.501 228.074a1.425 1.425 0 0 1-.851-1.826l28.253-77.627a1.424 1.424 0 1 1 2.677.975l-28.253 77.626a1.424 1.424 0 0 1-1.826.852"/>
        </g>
        <g>
            <g transform="translate(269 242.286)">
                <mask id="U" fill="#fff">
                    <use xlink:href="#T"/>
                </mask>
                <path fill="#FFF" d="M8.825 18a.907.907 0 0 1-.84-.561C6.198 13.122 4.88 11.803.561 10.014a.907.907 0 1 1 0-1.677C4.879 6.547 6.198 5.228 7.985.911a.91.91 0 0 1 1.68 0c1.788 4.317 3.106 5.636 7.425 7.426a.909.909 0 0 1 0 1.677c-4.319 1.789-5.637 3.108-7.424 7.425a.912.912 0 0 1-.841.56" mask="url(#U)"/>
            </g>
            <path fill="#D9EAFC" d="M278.802 257.91c-1.79-4.319-3.107-5.636-7.425-7.425a.917.917 0 0 1-.475-.453c-.414.195-.857.39-1.34.59a.907.907 0 0 0 0 1.678c4.317 1.789 5.636 3.108 7.424 7.424a.909.909 0 0 0 1.677 0c.202-.486.396-.928.591-1.342a.905.905 0 0 1-.452-.472"/>
        </g>
        <g>
            <g transform="translate(279 161)">
                <mask id="W" fill="#fff">
                    <use xlink:href="#V"/>
                </mask>
                <path fill="#FFF" d="M6.864 14a.705.705 0 0 1-.653-.437C4.82 10.206 3.795 9.18.436 7.79a.707.707 0 0 1 0-1.305C3.795 5.092 4.821 4.066 6.211.71a.707.707 0 0 1 1.307 0c1.39 3.357 2.415 4.383 5.774 5.775a.707.707 0 0 1 0 1.305c-3.359 1.391-4.384 2.417-5.774 5.774a.71.71 0 0 1-.654.437" mask="url(#W)"/>
            </g>
            <path fill="#D9EAFC" d="M286.624 173.152c-1.392-3.359-2.417-4.383-5.775-5.775a.713.713 0 0 1-.37-.352c-.322.151-.666.303-1.042.46a.705.705 0 0 0 0 1.304c3.358 1.391 4.383 2.417 5.774 5.774a.707.707 0 0 0 1.305 0c.157-.378.308-.721.46-1.043a.704.704 0 0 1-.352-.368"/>
        </g>
        <g>
            <g transform="translate(150 56.286)">
                <mask id="Y" fill="#fff">
                    <use xlink:href="#X"/>
                </mask>
                <path fill="#FFF" d="M8.825 18a.907.907 0 0 1-.84-.561C6.198 13.122 4.88 11.803.561 10.014a.907.907 0 1 1 0-1.677C4.879 6.547 6.198 5.228 7.985.911a.91.91 0 0 1 1.68 0c1.788 4.317 3.106 5.636 7.425 7.426a.909.909 0 0 1 0 1.677c-4.319 1.789-5.637 3.108-7.424 7.425a.912.912 0 0 1-.841.56" mask="url(#Y)"/>
            </g>
            <path fill="#D9EAFC" d="M159.802 71.91c-1.79-4.319-3.107-5.636-7.425-7.425a.917.917 0 0 1-.475-.453c-.414.195-.857.39-1.34.59a.907.907 0 0 0 0 1.678c4.317 1.789 5.636 3.108 7.424 7.424a.909.909 0 0 0 1.677 0c.202-.486.396-.928.591-1.342a.905.905 0 0 1-.452-.472"/>
        </g>
        <g>
            <g transform="translate(379 110)">
                <mask id="aa" fill="#fff">
                    <use xlink:href="#Z"/>
                </mask>
                <path fill="#FFF" d="M6.864 14a.705.705 0 0 1-.653-.437C4.82 10.206 3.795 9.18.436 7.79a.707.707 0 0 1 0-1.305C3.795 5.092 4.821 4.066 6.211.71a.707.707 0 0 1 1.307 0c1.39 3.357 2.415 4.383 5.774 5.775a.707.707 0 0 1 0 1.305c-3.359 1.391-4.384 2.417-5.774 5.774a.71.71 0 0 1-.654.437" mask="url(#aa)"/>
            </g>
            <path fill="#D9EAFC" d="M386.648 122.146c-1.397-3.37-2.425-4.397-5.794-5.792a.716.716 0 0 1-.37-.354c-.323.152-.67.304-1.046.46a.708.708 0 0 0 0 1.31c3.368 1.395 4.397 2.424 5.792 5.792a.71.71 0 0 0 1.31 0c.156-.38.308-.724.46-1.047a.706.706 0 0 1-.352-.369"/>
        </g>
        <g>
            <g transform="translate(428 270)">
                <mask id="ac" fill="#fff">
                    <use xlink:href="#ab"/>
                </mask>
                <path fill="#FFF" d="M6.864 14a.705.705 0 0 1-.653-.437C4.82 10.206 3.795 9.18.436 7.79a.707.707 0 0 1 0-1.305C3.795 5.092 4.821 4.066 6.211.71a.707.707 0 0 1 1.307 0c1.39 3.357 2.415 4.383 5.774 5.775a.707.707 0 0 1 0 1.305c-3.359 1.391-4.384 2.417-5.774 5.774a.71.71 0 0 1-.654.437" mask="url(#ac)"/>
            </g>
            <path fill="#D9EAFC" d="M435.648 282.146c-1.397-3.37-2.425-4.397-5.794-5.792a.716.716 0 0 1-.37-.354c-.323.152-.67.304-1.046.46a.708.708 0 0 0 0 1.31c3.368 1.395 4.397 2.424 5.792 5.792a.71.71 0 0 0 1.31 0c.156-.38.308-.724.46-1.047a.706.706 0 0 1-.352-.369"/>
        </g>
    </g>
</svg>
