<svg xmlns="http://www.w3.org/2000/svg" xmlns:xlink="http://www.w3.org/1999/xlink" width="1204" height="986" viewBox="0 0 1204 986">
    <defs>
        <linearGradient id="b" x1="58.617%" x2="10.268%" y1="22.999%" y2="87.903%">
            <stop offset="0%" stop-color="#3A89DB"/>
            <stop offset="100%" stop-color="#92C8FF"/>
        </linearGradient>
        <path id="a" d="M927.363 65.197c-31.375.086-63.86 9.76-89.532 24.908-42.005 24.788-68.153 67.681-107.41 95.794-16.317 11.69-36.026 21.03-56.258 18.924-21.004-2.189-38.637-16.294-52.068-31.982-13.431-15.689-24.124-33.575-39.087-47.924-26.897-25.793-66.614-37.931-104.37-34.006-52.493 5.462-96.952 40.246-122.755 83.273-76.013 126.727-89.592 77.229-186.01 66.087-68.06-7.87-153.345 42.97-109.295 157.672 63.438 165.19 273.966 31.28 295.7 200.842 14.488 113.04 84.485 201.518 209.992 265.43 219.518 143.642 450.827-19.855 508.32-111.062 36.35-57.669 57.62-123.225 69.61-189.677 13.466-74.645 15.527-151.617.915-226.061-11.407-58.115-33.149-114.622-65.855-164.803-27.888-42.786-64.016-89.098-117.106-103.148-10.899-2.885-22.356-4.237-33.98-4.267h-.811z"/>
        <linearGradient id="d" x1="18.951%" x2="58.617%" y1="47.961%" y2="22.999%">
            <stop offset="0%" stop-color="#3A89DB"/>
            <stop offset="100%" stop-color="#92C8FF"/>
        </linearGradient>
        <path id="c" d="M1060.273 148.28c-33.12.006-67.383 10.891-94.438 28.012-44.268 28.016-71.744 76.632-113.1 108.43-17.19 13.222-37.968 23.768-59.331 21.316-22.179-2.546-40.834-18.612-55.06-36.462-14.224-17.85-25.565-38.186-41.403-54.52-28.47-29.361-70.432-43.259-110.277-38.915-55.395 6.045-102.224 45.401-129.335 94.171-79.865 143.64-94.346 87.407-196.16 74.473-71.869-9.137-161.747 48.325-114.906 178.67 67.457 187.719 289.298 36.323 312.743 228.88C482.45 944.894 635.34 933.83 715.618 893.896c134.159-66.733 46.419 92.377 192.276 179.477 121.15 72.353 249.416-40.29 309.836-143.661 38.202-65.36 60.46-139.719 72.92-215.122 13.993-84.7 15.94-172.075.295-256.63-12.214-66.008-35.333-130.222-70.008-187.285-29.566-48.656-67.84-101.338-123.925-117.445-11.514-3.308-23.612-4.877-35.882-4.946l-.857-.002z"/>
    </defs>
    <g fill="none" fill-rule="evenodd" transform="translate(0 -3)">
        <use fill="url(#b)" transform="rotate(7 601.844 493.084)" xlink:href="#a"/>
        <use fill="url(#d)" transform="rotate(150 717.618 622.307)" xlink:href="#c"/>
    </g>
</svg>
